<?xml version="1.0" encoding="UTF-8" standalone="no"?>
<!-- Created with Inkscape (http://www.inkscape.org/) -->

<svg
   xmlns:dc="http://purl.org/dc/elements/1.1/"
   xmlns:cc="http://creativecommons.org/ns#"
   xmlns:rdf="http://www.w3.org/1999/02/22-rdf-syntax-ns#"
   xmlns:svg="http://www.w3.org/2000/svg"
   xmlns="http://www.w3.org/2000/svg"
   xmlns:sodipodi="http://sodipodi.sourceforge.net/DTD/sodipodi-0.dtd"
   xmlns:inkscape="http://www.inkscape.org/namespaces/inkscape"
   width="512"
   height="640"
   viewBox="0 0 512 640"
   id="svg2"
   version="1.1"
   inkscape:version="0.91 r13725"
   sodipodi:docname="background-trees.svg">
  <defs
     id="defs4" />
  <sodipodi:namedview
     id="base"
     pagecolor="#ffffff"
     bordercolor="#666666"
     borderopacity="1.0"
     inkscape:pageopacity="0.0"
     inkscape:pageshadow="2"
     inkscape:zoom="2.8"
     inkscape:cx="282.49334"
     inkscape:cy="160.91388"
     inkscape:document-units="px"
     inkscape:current-layer="layer1"
     showgrid="false"
     units="px"
     showguides="false"
     inkscape:window-width="2560"
     inkscape:window-height="1353"
     inkscape:window-x="1920"
     inkscape:window-y="24"
     inkscape:window-maximized="1" />
  <metadata
     id="metadata7">
    <rdf:RDF>
      <cc:Work
         rdf:about="">
        <dc:format>image/svg+xml</dc:format>
        <dc:type
           rdf:resource="http://purl.org/dc/dcmitype/StillImage" />
        <dc:title></dc:title>
      </cc:Work>
    </rdf:RDF>
  </metadata>
  <g
     inkscape:label="Layer 1"
     inkscape:groupmode="layer"
     id="layer1"
     transform="translate(0,-412.36221)">
    <path
       style="fill:#29c250;fill-opacity:1;fill-rule:evenodd;stroke:none;stroke-width:1px;stroke-linecap:butt;stroke-linejoin:miter;stroke-opacity:1"
       d="m 133.84375,412.36224 c -4.80009,6.00681 -9.42531,12.04355 -13.28711,18.21207 l 12.44727,4.71423 -16.34375,2.10776 c -4.25527,8.28268 -6.80581,16.85953 -6.3086,25.96131 l 12.63477,4.27591 -10.05078,7.81353 c -1.27228,-2.93576 -2.9254,-5.75226 -5.04493,-8.41157 l -3.16796,-3.19866 -10.23438,3.2084 4.29492,-8.43884 c -4.31293,-3.01222 -9.573539,-5.69212 -15.937497,-7.96936 l -5.324219,6.64471 -0.921875,-8.64533 c -2.686609,-0.76799 -5.54446,-1.47261 -8.574218,-2.11361 l -2.71875,6.2512 -1.824219,-7.13755 c -1.901942,-0.34231 -3.859508,-0.66451 -5.890625,-0.95843 -3.320571,-0.48052 -6.817473,-0.89538 -10.496094,-1.24089 -0.962577,7.62107 -1.758857,15.17714 -1.835937,22.44903 l 13.08789,-2.43698 -12.853515,10.28557 c 0.690596,9.28122 2.990316,17.92853 8.166015,25.44119 l 13.017578,-2.91035 -4.548828,12.01347 c 9.33112,7.58195 23.442587,13.27785 44.398434,16.27575 a 47.224632,32.744216 0 0 0 0.26563,0.55518 c -17.022863,2.49594 -33.878289,6.4509 -43.765626,12.73228 -0.467386,0.29688 -0.929801,0.61018 -1.392578,0.92726 l 4.132812,9.83363 -9.939453,-5.25966 c -6.316762,5.61805 -12.098471,12.83272 -17.136719,20.27893 l 4.47461,4.26811 -6.677735,-0.92921 c -2.340165,3.63903 -4.501093,7.28259 -6.451172,10.77258 l 4.328125,3.21424 -5.574218,-0.96038 -10.234375,21.0114 c 0,0 0.08859,-0.0289 0.08984,-0.0292 -0.04087,0.005 8.072338,1.02551 17.001954,-1.74543 l 1.240234,-9.27649 5.546875,8.29664 c 18.83649,-3.76923 39.230736,-15.86753 51.371096,-20.56919 l -0.46875,-14.64135 9.48438,8.98624 c 13.90678,-5.01858 24.55868,-13.34207 31.72851,-21.40684 C 119.04523,671.14594 98.46591,791.34341 108,914.3622 l 28,0 c -15.48783,-117.23572 3.06385,-241.05182 14.86523,-363.26168 0.38928,0.59024 0.77389,1.19581 1.14649,1.83503 3.82672,6.56492 11.61488,15.11457 22.75195,21.94839 1.0324,6.60834 4.71428,28.9041 11.19336,53.03106 3.82771,14.25372 8.5622,28.78288 14.24024,40.38449 5.67803,11.60161 12.20416,20.51284 20.54492,22.85812 7.73412,2.17469 14.69528,1.0203 20.51562,-1.92465 5.82035,-2.94496 10.5449,-7.60246 14.29492,-12.45372 2.58803,-3.34803 4.69082,-6.78628 6.37696,-9.88623 l 12.3164,-2.75255 -4.54882,12.01347 c 3.85939,3.13592 8.54483,5.94615 14.18359,8.38039 -14.14625,1.72791 -29.13475,4.73782 -37.4043,9.99142 -0.33883,0.21523 -0.67427,0.44415 -1.00976,0.67401 l 2.99609,7.12783 -7.20508,-3.81229 c -4.57932,4.0728 -8.77136,9.30168 -12.42383,14.69979 l 3.24414,3.09542 -4.83984,-0.67402 c -1.69649,2.6381 -3.26402,5.27761 -4.67773,7.80768 l 3.13867,2.33178 -4.04102,-0.69544 -7.41992,15.2316 c 0,0 0.0634,-0.0213 0.0644,-0.0214 -0.0297,0.004 5.85267,0.74259 12.32618,-1.26622 l 0.89843,-6.72457 4.02149,6.0155 c 13.65548,-2.7325 28.44106,-11.50367 37.24219,-14.91213 l -0.33985,-10.61284 6.875,6.5142 c 1.16447,-0.42022 2.28705,-0.8834 3.38867,-1.36362 -2.61468,2.95891 -5.06179,6.20709 -7.30468,9.52194 l 3.24414,3.09541 -4.8418,-0.67402 c -1.69649,2.6381 -3.26207,5.27957 -4.67578,7.80963 l 3.13867,2.32984 -4.04101,-0.69545 -7.41993,15.23161 c 0,0 0.0635,-0.0193 0.0645,-0.0195 -0.0297,0.004 5.85073,0.74062 12.32421,-1.26817 l 0.9004,-6.72458 4.02148,6.0155 c 13.65548,-2.7325 28.44106,-11.50367 37.24219,-14.91212 l -0.3418,-10.61283 6.87695,6.51419 c 1.39353,-0.5029 2.72585,-1.06425 4.0293,-1.65193 5.24012,63.05929 7.3725,125.88522 -5.93164,182.46167 l 30,0 c 6.34287,-48.78011 4.33302,-104.3295 -1.74023,-161.36847 2.73809,3.28497 6.26077,5.73469 10.26953,7.66548 l 8.07812,-4.60123 -3.99609,6.35056 c 3.84436,1.46617 7.98759,2.61284 12.19922,3.6876 0.58022,-1.99814 1.08653,-3.91391 1.52148,-5.75251 0.26606,-1.12462 0.50298,-2.21736 0.7168,-3.28436 l -3.38086,-2.43504 3.85547,-0.12662 c 0.29022,-1.71953 0.51178,-3.36237 0.66406,-4.9285 l -4.36133,-2.27529 4.60156,-1.41233 c 0.11445,-3.64208 -0.18614,-6.81881 -0.81835,-9.61349 8.88983,3.64081 23.09507,11.87927 36.26562,14.51473 l 4.02148,-6.0155 0.9004,6.72457 c 6.4735,2.00879 12.35391,1.27022 12.32421,1.26623 10e-4,2e-4 0.0645,0.0214 0.0645,0.0214 l -7.41993,-15.23159 -4.04101,0.69543 3.13867,-2.33178 c -1.41371,-2.53006 -2.97929,-5.16957 -4.67578,-7.80768 l -4.8418,0.67402 3.24414,-3.09541 c -3.65247,-5.39812 -7.8445,-10.627 -12.42382,-14.69979 l -7.20508,3.81228 2.99609,-7.12782 c -0.33549,-0.22987 -0.67093,-0.45879 -1.00976,-0.67402 -7.99968,-5.08216 -22.28927,-8.05849 -36.01954,-9.81219 0.21844,-0.0983 0.41981,-0.19601 0.60352,-0.27077 3.46265,-0.002 6.69871,-0.27924 9.71484,-0.82207 l 1.84766,-12.70891 9.98047,8.83038 c 8.17424,-4.07658 14.383,-10.53414 19.49023,-18.32311 l -6.25976,-15.20627 10.27148,8.45052 c 3.46057,-6.40104 6.42815,-13.39818 9.28321,-20.53216 -3.38689,-1.47305 -6.64611,-2.79775 -9.78516,-3.97982 -1.92009,-0.72305 -3.79056,-1.38615 -5.6211,-2.00451 l -5.06054,5.3668 0.65625,-6.78303 c -2.96241,-0.90129 -5.80558,-1.66438 -8.5293,-2.28892 l -5.00195,7.12002 -1.43555,-8.38234 c -6.6741,-1.07854 -12.57869,-1.27336 -17.81445,-0.71883 l -0.33399,9.45767 -7.40039,-7.74535 -4.32422,1.26817 c -12.97283,5.38012 -20.38943,16.81223 -25.45507,30.06385 0.98384,-12.04838 -0.70742,-23.5419 -8.29493,-33.06186 l -3.16992,-3.19865 -10.23437,3.20839 4.29687,-8.43885 c -4.31293,-3.01222 -9.57354,-5.69212 -15.9375,-7.96936 l -5.32422,6.64471 -0.92382,-8.64533 c -2.68661,-0.76799 -5.54446,-1.47261 -8.57422,-2.11361 l -2.7168,6.25121 -1.82422,-7.13756 c -1.90194,-0.34231 -3.86146,-0.66451 -5.89258,-0.95843 -3.32057,-0.48052 -6.81551,-0.89538 -10.49414,-1.24089 -0.96257,7.62107 -1.76079,15.17714 -1.83789,22.44903 l 13.08985,-2.43698 -12.85547,10.28557 c 0.58874,7.91236 2.35379,15.36122 6.0664,22.04189 -1.69647,3.26367 -3.92745,7.04944 -6.74218,10.69076 -3.51026,4.54108 -7.86182,8.76447 -12.93555,11.33166 -5.07373,2.56718 -10.82488,3.5551 -17.6211,1.64413 -6.18956,-1.7404 -12.5532,-9.56488 -18.0371,-20.76983 -5.48391,-11.20496 -10.181,-25.55348 -13.97071,-39.66567 -5.44963,-20.29348 -9.00071,-39.91805 -10.58593,-49.4389 4.68245,2.46832 9.85814,4.60673 15.51171,6.18107 l 8.78516,-9.66804 0.62891,14.63356 c 12.45907,3.78239 33.705,14.32424 52.77148,16.67703 l 4.9082,-8.68623 1.9336,9.15766 c 9.11247,2.09671 17.12508,0.47426 17.08398,0.47337 0.001,2e-4 0.0918,0.0195 0.0918,0.0195 l -11.78125,-20.18737 -5.48828,1.37335 4.07617,-3.52982 c -2.20646,-3.33467 -4.63556,-6.80609 -7.24219,-10.26024 l -6.58789,1.42595 4.14258,-4.59149 c -5.58279,-7.04932 -11.89077,-13.80981 -18.61133,-18.94065 l -9.51562,5.98433 3.38281,-10.11219 c -0.48526,-0.28166 -0.97066,-0.56085 -1.45899,-0.82206 -6.75276,-3.61196 -16.40084,-6.01353 -27.0664,-7.58366 6.26534,-1.04267 12.84205,-2.90491 19.42187,-5.87524 l 0.50977,-13.04008 9.90625,10.81543 c 11.98614,-5.08006 35.05856,-10.60556 51.18945,-21.01333 l -1.83008,-9.80246 7.37696,5.78174 c 8.33541,-4.22891 13.43434,-10.60536 13.40234,-10.57972 10e-4,-7e-4 0.084,-0.0429 0.084,-0.0429 l -22.0293,-7.93041 -3.32227,4.56812 0.85157,-5.31616 c -3.8384,-1.14315 -7.93419,-2.24941 -12.15626,-3.22787 l -4.13281,5.31421 0.21875,-6.17329 c -8.8182,-1.82833 -18.00765,-2.97165 -26.46289,-2.60062 l -3.4414,10.68297 -3.91602,-9.91934 c -0.32194,0.0552 -0.63959,0.11806 -0.95898,0.17727 3.16542,-6.25414 4.73351,-13.14596 5.30273,-20.43477 l -12.81641,-10.33232 13.07813,2.48568 c -0.0504,-7.27211 -0.81928,-14.8323 -1.75391,-22.45682 -3.67987,0.33208 -7.17769,0.73547 -10.5,1.20388 -2.03218,0.28652 -3.99135,0.59968 -5.89453,0.93505 l -1.85156,7.13171 -2.69336,-6.26094 c -3.03209,0.62994 -5.89262,1.3223 -8.58203,2.08049 l -0.95508,8.64338 -5.30078,-6.66419 c -6.37226,2.25401 -11.64087,4.91639 -15.96485,7.91287 l 4.26368,8.45247 -10.22071,-3.2454 -3.18164,3.18697 c -1.38861,1.72926 -2.57135,3.52966 -3.58984,5.38238 l -6.86719,-1.70061 8.07227,-4.97331 c -2.10985,-4.81139 -5.20263,-9.8307 -9.44727,-15.07965 l -8.01367,2.90839 3.72461,-7.86028 c -1.89286,-2.05081 -3.96469,-4.13647 -6.2168,-6.25704 l -5.58398,3.92526 2.16797,-7.0421 c -1.44513,-1.27991 -2.94862,-2.5709 -4.5293,-3.87657 -2.58418,-2.1346 -5.35215,-4.30311 -8.3125,-6.50835 z m -19.45703,67.00229 c 1.51488,3.37665 3.46948,6.82996 5.95117,10.37322 a 47.224632,32.744216 0 0 0 -3.90234,2.65127 c -0.12574,-4.49509 -0.75312,-8.86168 -2.04883,-13.02449 z m 99.1582,3.45969 5.57031,1.26621 c -1.42682,0.59924 -2.87995,1.26526 -4.35546,1.98114 l -1.21485,-3.24735 z m 126.7461,235.89793 c -0.0254,0.10946 -0.0493,0.21835 -0.0742,0.32726 -0.01,-0.0734 -0.0197,-0.14668 -0.0293,-0.22012 0.0332,-0.0359 0.0705,-0.0713 0.10352,-0.10714 z m 32.68359,6.53562 -0.3418,10.61284 c 0.0631,0.0244 0.13357,0.0548 0.19727,0.0799 l -4.62891,0.43636 3.8086,-4.69669 -1.02735,-2.32205 c -0.27835,-0.48112 -0.5757,-0.94006 -0.88281,-1.38698 l 2.875,-2.72334 z m -29.60547,19.58543 3.6875,0.0546 -3.17187,4.65967 c -0.17163,-1.57162 -0.33804,-3.14061 -0.51563,-4.71422 z"
       id="path4138"
       inkscape:connector-curvature="0" />
    <g
       transform="matrix(-0.42590553,-0.31001057,-0.29654916,0.40804554,373.39609,478.13004)"
       id="layer1-4-1-6-6"
       inkscape:label="Layer 1"
       style="fill:#2abd36;fill-opacity:1">
      <path
         style="fill:#86e48d;fill-opacity:1;fill-rule:evenodd;stroke:none;stroke-width:1px;stroke-linecap:butt;stroke-linejoin:miter;stroke-opacity:1"
         d="m 202.9668,405.7207 -24.36719,20.24219 3.0625,7.01172 -5.63086,-4.64453 c -3.96701,3.6909 -8.06809,7.70748 -12.10547,11.95898 l 3.38086,8.47071 -7.06836,-4.4961 c -8.18066,9.0276 -15.81337,18.95676 -21.17383,29.07227 l 10.13282,11.35351 -14.28321,-2.24804 c -0.26812,0.71047 -0.53325,1.42083 -0.77344,2.13086 -3.22145,9.52213 -4.298,22.43181 -4.10156,36.50195 -0.11893,-2.98014 -0.40062,-5.78123 -0.91601,-8.29883 -0.11652,-0.56914 -0.2527,-1.14072 -0.39063,-1.71289 l -11.19922,0.35742 8.88282,-7.75781 c -3.15045,-8.29452 -8.06633,-16.66564 -13.49024,-24.39453 l -5.86719,2.7793 3.41407,-6.18946 c -2.69641,-3.65761 -5.46397,-7.1416 -8.16016,-10.36133 l -4.777344,3.03125 3.029294,-5.09765 -16.794919,-17.90821 c 0,0 -0.0072,0.0964 -0.0078,0.0977 0.01536,-0.0401 -4.027254,7.51857 -4.650391,17.30274 l 8.642578,4.69726 -10.222656,2.31836 c -2.878693,17.05343 -0.1694,37.49295 0.701172,51.58594 -2.011656,-2.66859 -4.250559,-5.36946 -6.746094,-8.10547 l -10.96875,4.76172 4.542969,-11.34766 c -2.824454,-2.71687 -5.903071,-5.46774 -9.236328,-8.25195 L 48.34375,504.56641 50.777344,494.5 c -2.131985,-1.67315 -4.347972,-3.35691 -6.671875,-5.05469 -3.799233,-2.7756 -7.85766,-5.585 -12.189453,-8.42773 -6.205972,8.8383 -12.164111,17.70409 -17.042969,26.68945 L 32.697266,513.26367 10,517.61328 c -5.2491585,11.98579 -8.0879717,24.23999 -6.6152344,36.9707 l 18.0507814,4.92188 -13.5410158,11.94531 c 2.1790598,5.14953 5.1517378,10.38667 9.0136718,15.72266 -6.57093,3.47676 -12.6380335,6.8192 -17.9179686,8.77365 l 7.9e-6,188.22441 513.0097577,0 0,-188.22441 c -3.40905,-1.95852 -6.92504,-3.215 -10.5293,-4.03342 3.86228,-28.46855 5.9815,-61.1298 -0.47851,-80.22461 -0.24017,-0.71003 -0.50532,-1.41843 -0.77344,-2.1289 l -14.2832,2.24609 10.13281,-11.35156 c -5.36046,-10.11551 -12.99512,-20.04662 -21.17578,-29.07422 l -7.06641,4.49609 3.38086,-8.4707 c -4.03738,-4.2515 -8.13846,-8.26808 -12.10547,-11.95898 l -5.63281,4.64453 3.06445,-7.01172 -24.36914,-20.24219 c 0,0 0.008,0.12505 0.008,0.12695 0.0132,-0.054 -3.95292,10.27009 -3.18555,22.89649 l 11.8164,4.63281 -12.71679,4.60156 c -0.9393,21.86922 5.50985,47.01155 8.9375,64.86524 -0.38731,0.27221 -0.78779,0.54456 -1.16992,0.8164 l 1.95898,10.17188 -7.19141,-6.33203 c -3.46058,2.62428 -6.66411,5.22763 -9.61328,7.80859 l 4.00391,11.54883 -10.73242,-5.27344 c -6.71172,6.69643 -11.78182,13.24737 -15.45118,19.6543 l 10.5,8.16797 -14.90429,2.02929 -2.00195,5.66602 0.0234,-0.64258 c -8.85046,-3.39979 -16.89799,-5.36201 -24.24414,-6.10156 l -3.17969,12.91992 -7.92773,-12.7832 -6.30273,0.50586 c -8.95603,1.70321 -16.64645,5.53862 -23.39649,10.82422 1.85958,-7.39056 2.30606,-15.06188 0.8125,-23.05274 l -1.82226,-6.05469 -14.79297,-2.72851 10.87304,-7.66602 c -3.36378,-6.57249 -8.12059,-13.35258 -14.50976,-20.35742 l -10.96875,4.76172 4.54297,-11.34961 c -2.82446,-2.71687 -5.90307,-5.46578 -9.23633,-8.25 l -7.47852,5.98633 2.4336,-10.06836 c -2.13199,-1.67315 -4.34797,-3.35691 -6.67188,-5.05469 -3.79923,-2.7756 -7.85961,-5.585 -12.1914,-8.42773 -6.20598,8.8383 -12.16411,17.70409 -17.04297,26.68945 l 17.82422,5.55859 -22.69727,4.34766 c -5.24916,11.98579 -8.08602,24.23999 -6.61328,36.9707 l 18.04883,4.92383 -13.53907,11.94531 c 2.23642,5.28508 5.30421,10.66271 9.31641,16.14454 -0.0265,0.0105 -0.0536,0.0187 -0.0801,0.0293 -4.11303,2.21299 -7.93664,4.16382 -11.55859,5.8711 l -7.19336,0.45703 8.12109,-9.13477 c -1.73557,-3.51379 -3.69729,-7.14482 -5.88867,-10.89453 l -9.06836,3.09375 5.70508,-8.64453 c -1.43814,-2.29707 -2.95217,-4.63225 -4.5625,-7.01758 -2.63265,-3.89965 -5.49854,-7.91907 -8.60937,-12.0625 -3.28099,2.30579 -6.50687,4.63933 -9.6875,6.99414 0.6226,-0.84109 1.23791,-1.69615 1.83789,-2.57617 l -6.67579,-11.98047 14.78321,4.30274 c 7.95059,-11.09939 25.58165,-28.64847 34.32812,-46.79102 l -7.00195,-7.79883 9.76758,1.16211 c 5.14821,-8.34351 6.21958,-16.84834 6.20898,-16.80664 0,-0.002 0.0508,-0.084 0.0508,-0.084 l -24.05664,4.90234 -0.47656,5.91211 -2.14453,-5.23633 c -4.06138,1.06831 -8.33372,2.31086 -12.64844,3.73633 l -0.79297,7.02344 -3.17968,-5.66016 c -8.89398,3.17049 -17.74535,7.15909 -25.11133,12.10547 l 2.76367,11.46484 -8.9336,-6.76562 c -0.44334,0.38711 -0.88448,0.77486 -1.30859,1.17187 -0.68316,0.63953 -1.36264,1.32923 -2.03906,2.05469 l -9.12695,-5.85351 19.43359,-4.11915 c 2.27389,-17.46877 11.62488,-48.17374 10.50977,-74.13671 l -12.7168,-4.60157 11.8164,-4.63281 c 0.76737,-12.6264 -3.19874,-22.95048 -3.18554,-22.89648 0,-0.002 0.006,-0.12696 0.006,-0.12696 z m -72.86719,118.30078 c 0.15462,5.92874 0.51738,12.02556 1.03711,18.14844 -0.80497,-0.14065 -1.61583,-0.26527 -2.43945,-0.35937 0.89613,-6.29434 1.40957,-12.3178 1.40234,-17.78907 z m -46.316407,5.77149 9.255859,3.20508 -12.373046,5.91406 c -0.02165,1.19821 -0.01052,2.38216 0.01953,3.55664 l -5.564453,-1.02539 10.875,-7.66602 c -0.675028,-1.31893 -1.423761,-2.64853 -2.21289,-3.98437 z m 113.886717,56.16211 12.67578,9.60156 -21.14453,-3.33984 c 2.82091,-1.81258 5.66432,-3.90339 8.46875,-6.26172 z m -12.69531,8.78711 c -3.69137,4.18771 -6.95029,8.58717 -9.63477,13.26953 -2.88111,-1.34506 -5.88876,-2.82097 -9.07226,-4.44922 -0.0313,-0.58797 -0.0812,-1.13678 -0.11719,-1.71484 0.53506,-0.13151 1.07841,-0.25568 1.63672,-0.36914 4.78536,-0.9725 10.8166,-3.18122 17.1875,-6.73633 z"
         transform="matrix(-1.5325868,-1.1643752,-1.1146813,1.6009115,805.09481,99.45725)"
         id="path4142-9-6-7"
         inkscape:connector-curvature="0"
         sodipodi:nodetypes="ccccccccccccccccccccccccccccccccccscccccccccccccccccccccccccccccccccccccccccccccccccccccccscccccccccccccccscccccccccccccccccccccccccccccccccccccccccccccccscc" />
    </g>
    <g
       transform="matrix(-0.4267455,-0.31038061,-0.29713401,0.4085326,609.59242,637.27923)"
       id="layer1-4-1-6-6-7"
       inkscape:label="Layer 1"
       style="fill:#2abd36;fill-opacity:1" />
    <g
       transform="matrix(0.44446561,0.28442603,-0.27228712,0.42549645,565.89011,604.25186)"
       id="layer1-4-1-6-6-7-4"
       inkscape:label="Layer 1"
       style="fill:#2abd36;fill-opacity:1" />
    <g
       transform="matrix(0.44087815,-0.28995569,0.2775808,0.42206208,127.2888,643.0427)"
       id="layer1-4-1-6-6-7-4-9"
       inkscape:label="Layer 1"
       style="fill:#2abd36;fill-opacity:1" />
    <g
       transform="matrix(-0.29618054,-0.43672066,-0.41808204,0.28353996,633.7023,837.38979)"
       id="layer1-4-1-6-6-7-48"
       inkscape:label="Layer 1"
       style="fill:#2abd36;fill-opacity:1" />
  </g>
</svg>
