<?xml version="1.0" encoding="UTF-8" standalone="no"?>
<!-- Created with Inkscape (http://www.inkscape.org/) -->

<svg
   xmlns:dc="http://purl.org/dc/elements/1.1/"
   xmlns:cc="http://creativecommons.org/ns#"
   xmlns:rdf="http://www.w3.org/1999/02/22-rdf-syntax-ns#"
   xmlns:svg="http://www.w3.org/2000/svg"
   xmlns="http://www.w3.org/2000/svg"
   xmlns:sodipodi="http://sodipodi.sourceforge.net/DTD/sodipodi-0.dtd"
   xmlns:inkscape="http://www.inkscape.org/namespaces/inkscape"
   width="640"
   height="240"
   viewBox="0 0 639.99999 240"
   id="svg2"
   version="1.1"
   inkscape:version="0.91 r13725"
   sodipodi:docname="foreground-trees.svg">
  <defs
     id="defs4" />
  <sodipodi:namedview
     id="base"
     pagecolor="#ffffff"
     bordercolor="#666666"
     borderopacity="1.0"
     inkscape:pageopacity="0.0"
     inkscape:pageshadow="2"
     inkscape:zoom="12.85625"
     inkscape:cx="85.270535"
     inkscape:cy="207.62172"
     inkscape:document-units="px"
     inkscape:current-layer="layer1"
     showgrid="false"
     units="px"
     inkscape:window-width="2560"
     inkscape:window-height="1353"
     inkscape:window-x="1920"
     inkscape:window-y="24"
     inkscape:window-maximized="1" />
  <metadata
     id="metadata7">
    <rdf:RDF>
      <cc:Work
         rdf:about="">
        <dc:format>image/svg+xml</dc:format>
        <dc:type
           rdf:resource="http://purl.org/dc/dcmitype/StillImage" />
        <dc:title></dc:title>
      </cc:Work>
    </rdf:RDF>
  </metadata>
  <g
     inkscape:label="Layer 1"
     inkscape:groupmode="layer"
     id="layer1"
     transform="translate(0,-812.36216)">
    <path
       style="fill:#98eaa2;fill-opacity:1;fill-rule:evenodd;stroke:none;stroke-width:0.85325336px;stroke-linecap:butt;stroke-linejoin:miter;stroke-opacity:1"
       d="M 171.74609 73.945312 A 8 8 0 0 0 163.74609 81.945312 A 8 8 0 0 0 165.08008 86.359375 A 32 32 0 0 0 153.82617 95.210938 A 8 8 0 0 0 147.99805 92.683594 A 8 8 0 0 0 139.99805 100.68359 A 8 8 0 0 0 140.62305 103.76562 A 32 32 0 0 0 134.41016 103.14844 A 32 32 0 0 0 109 115.75977 A 8 8 0 0 0 103.42969 113.49023 A 8 8 0 0 0 98.117188 115.52344 A 16 16 0 0 0 89.021484 112.68164 A 16 16 0 0 0 73.0625 127.86133 A 16 16 0 0 0 63.332031 124.53711 A 16 16 0 0 0 62.242188 124.57617 A 8 8 0 0 0 54.271484 117.22461 A 8 8 0 0 0 47.046875 121.81055 A 32 32 0 0 0 39.244141 115.87109 A 8 8 0 0 0 40.087891 112.31641 A 8 8 0 0 0 32.9375 104.36328 A 16 16 0 0 0 17.884766 93.740234 A 16 16 0 0 0 1.8847656 109.74023 A 16 16 0 0 0 4.5761719 118.59961 A 32 32 0 0 0 -8 144 A 32 32 0 0 0 24 176 A 32 32 0 0 0 54.435547 153.82617 A 16 16 0 0 0 63.332031 156.53711 A 16 16 0 0 0 79.291016 141.35742 A 16 16 0 0 0 89.021484 144.68164 A 16 16 0 0 0 102.48633 137.29688 A 32 32 0 0 0 134.41016 167.14844 A 32 32 0 0 0 165.08984 144.17578 A 32 32 0 0 0 178.72461 147.26758 A 32 32 0 0 0 203.27148 135.78711 A 32 32 0 0 0 233.32812 156.88672 A 32 32 0 0 0 254.70117 148.65234 A 32 32 0 0 0 275.77734 156.60742 A 32 32 0 0 0 299.18945 146.36133 A 32 32 0 0 0 331.1582 177.45312 A 32 32 0 0 0 362.92773 149.11914 A 32 32 0 0 0 386.09375 159.06445 A 32 32 0 0 0 414.46094 141.81836 A 16 16 0 0 0 424.07031 145.61328 A 32 32 0 0 0 453.00977 164.03711 A 32 32 0 0 0 484.08789 139.5 A 16 16 0 0 0 496.42969 145.33594 A 16 16 0 0 0 511.06055 135.78516 A 32 32 0 0 0 538.25977 150.96875 A 32 32 0 0 0 567.41602 132.08984 A 16 16 0 0 0 573.66406 134.29883 A 32 32 0 0 0 573.15234 139.81445 A 32 32 0 0 0 605.15234 171.81445 A 32 32 0 0 0 633.70508 154.18555 A 32 32 0 0 0 664 176 A 32 32 0 0 0 696 144 A 32 32 0 0 0 664 112 A 32 32 0 0 0 635.44727 129.63281 A 32 32 0 0 0 605.15234 107.81445 A 32 32 0 0 0 590.17188 111.56445 A 16 16 0 0 0 575.74609 102.45117 A 16 16 0 0 0 567.03711 105.03516 A 32 32 0 0 0 538.25977 86.96875 A 32 32 0 0 0 506.36719 116.81836 A 16 16 0 0 0 496.42969 113.33594 A 16 16 0 0 0 482.94141 120.76367 A 32 32 0 0 0 453.00977 100.03711 A 32 32 0 0 0 426.74219 113.77734 A 16 16 0 0 0 424.84766 113.65234 A 16 16 0 0 0 416.16797 116.21484 A 32 32 0 0 0 386.09375 95.064453 A 32 32 0 0 0 371.79492 98.449219 A 8 8 0 0 0 372.31445 95.638672 A 8 8 0 0 0 364.31445 87.638672 A 8 8 0 0 0 356.31445 95.638672 A 8 8 0 0 0 357.18555 99.269531 A 16 16 0 0 0 354.53125 99.029297 A 16 16 0 0 0 338.56445 114.35938 A 32 32 0 0 0 331.1582 113.45312 A 32 32 0 0 0 319.64258 115.60156 A 8 8 0 0 0 311.86719 109.45117 A 8 8 0 0 0 305.45508 112.68359 A 32 32 0 0 0 275.77734 92.607422 A 32 32 0 0 0 254.4043 100.8418 A 32 32 0 0 0 233.32812 92.886719 A 32 32 0 0 0 228.01172 93.335938 A 16 16 0 0 0 212.05469 78.490234 A 16 16 0 0 0 197.03125 89.039062 A 32 32 0 0 0 179.61914 83.3125 A 8 8 0 0 0 179.74609 81.945312 A 8 8 0 0 0 171.74609 73.945312 z "
       transform="translate(0,812.36216)"
       id="path3336-3-3-3-1" />
    <path
       style="fill:#80e49b;fill-opacity:1;fill-rule:evenodd;stroke:none;stroke-width:0.85325336px;stroke-linecap:butt;stroke-linejoin:miter;stroke-opacity:1"
       d="M 201.01953 123.65234 A 32 32 0 0 0 173.59766 139.23633 A 16 16 0 0 0 159.61133 130.9707 A 16 16 0 0 0 144.42578 141.97266 A 32 32 0 0 0 141.67383 141.83594 A 32 32 0 0 0 136.53516 142.26367 A 8 8 0 0 0 138.14453 137.46875 A 8 8 0 0 0 130.14453 129.46875 A 8 8 0 0 0 122.4668 135.24219 A 32 32 0 0 0 98.742188 124.66211 A 32 32 0 0 0 68.257812 146.9707 A 32 32 0 0 0 56.9375 144.86133 A 32 32 0 0 0 39.386719 150.12109 A 16 16 0 0 0 39.396484 149.93359 A 16 16 0 0 0 23.396484 133.93359 A 16 16 0 0 0 8.1503906 145.0957 A 32 32 0 0 0 0 144 A 32 32 0 0 0 -32 176 A 32 32 0 0 0 0 208 A 32 32 0 0 0 28.248047 190.99805 A 32 32 0 0 0 56.9375 208.86133 A 32 32 0 0 0 87.421875 186.55273 A 32 32 0 0 0 98.742188 188.66211 A 32 32 0 0 0 111.99219 185.74805 A 32 32 0 0 0 141.67383 205.83594 A 32 32 0 0 0 173.67383 173.83594 A 32 32 0 0 0 173.61328 172.10352 A 32 32 0 0 0 201.01953 187.65234 A 32 32 0 0 0 215.88477 183.9707 A 32 32 0 0 0 241.42578 196.74414 A 32 32 0 0 0 271.34961 175.97461 A 32 32 0 0 0 300.77344 195.48047 A 32 32 0 0 0 324.28125 185.13281 A 32 32 0 0 0 355.31445 209.46289 A 32 32 0 0 0 386.3457 185.11133 A 32 32 0 0 0 413.80664 200.75 A 32 32 0 0 0 439.06836 188.32812 A 32 32 0 0 0 470.43359 214.12891 A 32 32 0 0 0 502.22266 185.6582 A 32 32 0 0 0 523.94727 194.2168 A 32 32 0 0 0 550.48633 180.05078 A 32 32 0 0 0 571.55078 187.99414 A 32 32 0 0 0 576.07422 187.64062 A 32 32 0 0 0 597.68555 196.08398 A 32 32 0 0 0 612.56055 192.39648 A 32 32 0 0 0 640 208 A 32 32 0 0 0 672 176 A 32 32 0 0 0 640 144 A 32 32 0 0 0 625.125 147.6875 A 32 32 0 0 0 597.68555 132.08398 A 32 32 0 0 0 593.16016 132.44531 A 32 32 0 0 0 571.55078 123.99414 A 32 32 0 0 0 551.94922 130.7207 A 8 8 0 0 0 544.48242 125.5918 A 8 8 0 0 0 536.51953 132.82812 A 32 32 0 0 0 523.94727 130.2168 A 32 32 0 0 0 501.78906 139.14258 A 16 16 0 0 0 487.85547 130.9707 A 16 16 0 0 0 471.85547 146.9707 A 16 16 0 0 0 472.20703 150.21875 A 32 32 0 0 0 470.43359 150.12891 A 32 32 0 0 0 455.55859 153.81641 A 8 8 0 0 0 447.7207 147.37109 A 8 8 0 0 0 440.74023 151.4707 A 32 32 0 0 0 413.80664 136.75 A 32 32 0 0 0 406.13281 137.74219 A 8 8 0 0 0 407.49414 133.28125 A 8 8 0 0 0 399.49414 125.28125 A 8 8 0 0 0 391.49414 133.28125 A 8 8 0 0 0 391.60156 134.55664 A 16 16 0 0 0 383.31641 132.2168 A 16 16 0 0 0 367.33594 147.82812 A 32 32 0 0 0 355.31445 145.46289 A 32 32 0 0 0 351.13086 145.77539 A 16 16 0 0 0 351.40039 142.92578 A 16 16 0 0 0 335.40039 126.92578 A 16 16 0 0 0 320.16211 138.07227 A 32 32 0 0 0 300.77344 131.48047 A 32 32 0 0 0 277.31641 141.77148 A 8 8 0 0 0 270.375 137.72656 A 8 8 0 0 0 263.50977 141.63672 A 32 32 0 0 0 241.42578 132.74414 A 32 32 0 0 0 233.03906 133.87109 A 8 8 0 0 0 233.25977 132.03711 A 8 8 0 0 0 225.25977 124.03711 A 8 8 0 0 0 218.04688 128.60352 A 32 32 0 0 0 201.01953 123.65234 z M 397.59961 141.04297 A 8 8 0 0 0 397.79297 141.0918 A 32 32 0 0 0 397.66602 141.16406 A 16 16 0 0 0 397.59961 141.04297 z "
       id="path3336-5-6-2-9-1-2-7-0-9-3-6-0"
       transform="translate(0,812.36216)" />
    <circle
       style="fill:#80e49b;fill-opacity:1;fill-rule:evenodd;stroke:none;stroke-width:0.85325336px;stroke-linecap:butt;stroke-linejoin:miter;stroke-opacity:1"
       id="path3336-3-6"
       cx="129.34457"
       cy="1024.7904"
       r="24" />
    <path
       style="fill:#69df89;fill-opacity:1;fill-rule:evenodd;stroke:none;stroke-width:1px;stroke-linecap:butt;stroke-linejoin:miter;stroke-opacity:1"
       d="m 173.61328,172.10352 c 0.0358,0.57682 0.056,1.15451 0.0606,1.73242 -1.84786,30.4631 -55.12023,26.30919 -61.68164,11.91211 -4.15763,1.90719 -8.67582,2.90087 -13.250002,2.91406 -3.869944,-0.0128 -7.70547,-0.72752 -11.320313,-2.10938 -12.579096,14.47073 -44.921238,28.93148 -59.173828,4.44532 C 22.700802,201.45324 11.835664,207.99276 0,208 l 0,32 640,0 0,-32 c -11.25391,-0.0143 -21.67306,-5.93918 -27.43945,-15.60352 -4.58646,2.41586 -9.69118,3.68131 -14.875,3.6875 -11.13874,-33.1582 -35.10215,-5.71371 -47.19922,-16.0332 -5.93695,8.84509 -15.88623,14.15582 -26.53906,14.16602 -8.06104,-0.0147 -15.81955,-3.07127 -21.72461,-8.5586 -28.80212,37.08337 -50.60164,-1.44295 -69.93568,-1.1885 -19.33404,0.25445 -36.88527,-20.42492 -45.94128,0.64163 -9.05601,21.06655 -52.58511,16.21085 -62.06445,0.0215 -17.81695,17.13555 -44.40348,9.75289 -52.93164,-9.1582 -4.67687,12.47863 -16.59758,20.75255 -29.92383,20.76953 -10.0468,-0.0123 -19.50459,-4.74225 -25.54101,-12.77344 -15.52147,7.73428 -34.5127,0.51423 -42.27149,-11.86718 z"
       transform="translate(0,812.36216)"
       id="path4207"
       inkscape:connector-curvature="0"
       sodipodi:nodetypes="ccccccccccccccczzcccccc" />
    <ellipse
       style="fill:#98eaa2;fill-opacity:1;stroke:none"
       id="path5352"
       cx="87.121605"
       cy="846.5484"
       rx="62.701157"
       ry="25.190464" />
    <path
       style="fill:#98eaa2;fill-opacity:1;fill-rule:evenodd;stroke:none;stroke-width:1px;stroke-linecap:butt;stroke-linejoin:miter;stroke-opacity:1"
       d="m 80.081476,823.55794 c 2.034901,-6.15299 4.007304,-12.30945 9.680178,-18.26033 4.414665,6.08678 6.609338,12.17355 8.14015,18.26033 z"
       id="path5356"
       inkscape:connector-curvature="0"
       sodipodi:nodetypes="cccc" />
    <path
       style="fill:#98eaa2;fill-opacity:1;fill-rule:evenodd;stroke:none;stroke-width:1px;stroke-linecap:butt;stroke-linejoin:miter;stroke-opacity:1"
       d="m 72.583034,830.3159 c -0.17676,-6.47834 -0.413479,-12.9387 2.899977,-20.46303 6.220136,4.2247 10.352347,9.20367 13.860194,14.40822 z"
       id="path5356-3"
       inkscape:connector-curvature="0"
       sodipodi:nodetypes="cccc" />
    <path
       style="fill:#98eaa2;fill-opacity:1;fill-rule:evenodd;stroke:none;stroke-width:1px;stroke-linecap:butt;stroke-linejoin:miter;stroke-opacity:1"
       d="m 74.749635,819.24597 c -2.81908,-4.40225 -11.104357,-5.41169 -19.83471,-6.14487 6.975655,7.68803 7.505807,12.29199 10.578512,18.12348 z"
       id="path5375"
       inkscape:connector-curvature="0"
       sodipodi:nodetypes="cccc" />
    <path
       style="fill:#98eaa2;fill-opacity:1;fill-rule:evenodd;stroke:none;stroke-width:1px;stroke-linecap:butt;stroke-linejoin:miter;stroke-opacity:1"
       d="m 54.603792,825.85754 c -0.07075,-1.49648 0.693489,-2.80741 2.489062,-3.88916 -2.696483,-0.67412 -5.185545,-0.31113 -7.467185,1.08897 -0.196294,-1.8634 -3.547896,-3.46386 -6.067088,-5.13369 -1.829885,2.89542 -1.320909,5.08919 -1.166748,7.3894 -0.900312,-1.57227 -3.203599,-1.34072 -5.522606,-1.08896 0.125791,1.4975 1.472905,2.64605 3.033544,3.73359 -7.849735,-4.04643 -9.208439,-3.22459 -12.445309,-3.81138 1.298808,3.53677 2.433673,7.08721 6.144872,10.42295 z"
       id="path5377"
       inkscape:connector-curvature="0"
       sodipodi:nodetypes="cccccccccc" />
    <path
       style="fill:#98eaa2;fill-opacity:1;fill-rule:evenodd;stroke:none;stroke-width:1px;stroke-linecap:butt;stroke-linejoin:miter;stroke-opacity:1"
       d="m 24.735051,835.96936 c 2.71158,0.33594 2.103848,1.90325 2.644628,2.17792 -2.297331,-0.0696 -4.415364,1.36695 -6.533787,2.8002 1.088835,1.62945 2.650254,2.88582 4.433641,3.96694 -1.92456,0.90944 -3.875394,1.65466 -5.600389,3.81138 1.639164,0.77068 3.347133,1.45536 4.589208,2.72241 -1.451009,1.31751 -1.825014,3.06581 -2.566845,4.66699 1.939155,1.05642 3.68566,0.95694 5.367039,0.4667 0.01654,1.61341 -0.777777,3.25577 0.544483,4.82255 1.985065,-0.56307 3.955447,-1.55196 5.989305,-0.70004 -0.827806,2.04445 0.07616,3.9652 0.622265,5.91152 1.317556,-0.29289 2.312298,-1.10725 2.955761,-2.48906 1.498885,0.72245 2.96601,1.47499 3.500243,3.11132 0.919441,-0.0997 1.647005,-0.67912 2.255712,-1.55566 0.0072,1.41201 0.539595,2.68396 1.322314,3.88916 0.666476,0.0549 0.788265,-0.49544 1.011181,-0.9334 0.317333,-0.30121 0.536732,0.16812 0.777832,0.4667 0.20809,-0.69771 0.689133,-0.44009 1.088965,-0.4667 l 3.655809,-0.54448 c 0.765098,1.71577 1.185634,4.39632 2.411279,4.82256 2.703016,-0.33146 3.941415,-1.91831 5.911521,-2.87798 -0.06749,0.8097 -0.170739,1.6245 0.466699,2.33349 1.606899,-1.23795 3.536452,-1.40039 5.444823,-1.63344 0.438953,1.46105 1.068646,1.96839 1.71123,2.41128 1.510679,-0.33019 3.003541,-0.6782 3.500243,-2.02237 1.386659,2.72158 3.691382,3.47588 5.755955,4.74478 0.238568,-1.48105 0.611639,-2.88968 2.177929,-3.65581 l 3.889159,1.94458 3.811376,-1.71123 4.355858,2.33349 5.055907,-2.64463 c 1.420175,2.41069 0.354279,4.90558 -2.333496,6.92271 4.412058,0.90102 5.958643,-2.49617 8.478371,-4.43364 0.84058,-1.15754 0.70681,-2.55867 3.03354,-3.34468 1.29602,1.09847 2.33166,2.80446 4.20029,2.56684 2.41749,-0.67146 2.88421,-2.17896 3.96694,-3.42246 0.36366,1.64187 0.54247,3.34535 2.10015,4.58921 2.15255,-1.1913 3.75225,-3.76473 5.52261,-5.91152 1.71751,-0.29776 3.54432,-0.81412 4.66699,0.0778 -0.55432,-1.10685 0.67468,-1.32204 1.24453,-1.8668 0.19377,-0.6782 4.57657,0.86097 4.27807,2.17793 -0.55539,0.55295 -0.50538,-4.25807 0.62227,-4.27807 3.30167,-1.18889 5.4691,0.45784 8.01166,1.16674 l 0.23335,-4.27807 3.50025,-1.71123 0.70005,2.8002 c 9.51485,-8.90933 1.66468,-2.94668 4.74477,-9.7229 2.82612,1.15562 5.65225,0.88729 8.47837,0.85561 -2.46169,-5.17672 -4.74201,-4.64097 -9.17842,-7.46718 L 32.746718,833.09137 c -2.838421,0.53967 -5.585064,1.30878 -8.011667,2.87799 z"
       id="path5394"
       inkscape:connector-curvature="0"
       sodipodi:nodetypes="ccccccccccccccccccccccccccccccccccccccccccccccccccc" />
    <path
       style="fill:#98eaa2;fill-opacity:1;fill-rule:evenodd;stroke:none;stroke-width:1px;stroke-linecap:butt;stroke-linejoin:miter;stroke-opacity:1"
       d="m 124.4142,829.59113 c 0.0707,-1.49648 -0.69349,-2.80741 -2.48906,-3.88916 2.69648,-0.67412 5.18554,-0.31113 7.46718,1.08897 0.1963,-1.8634 3.5479,-3.46386 6.06709,-5.13369 1.82989,2.89542 1.32091,5.08919 1.16675,7.3894 0.90031,-1.57227 3.2036,-1.34072 5.52261,-1.08896 -0.1258,1.4975 -1.47291,2.64605 -3.03355,3.73359 7.84974,-4.04643 9.20844,-3.22459 12.44531,-3.81138 -1.29881,3.53677 -2.43367,7.08721 -6.14487,10.42295 z"
       id="path5377-0"
       inkscape:connector-curvature="0"
       sodipodi:nodetypes="cccccccccc" />
    <path
       style="fill:#98eaa2;fill-opacity:1;fill-rule:evenodd;stroke:none;stroke-width:1px;stroke-linecap:butt;stroke-linejoin:miter;stroke-opacity:1"
       d="m 102.47171,827.59117 c 2.86765,-5.81178 5.78226,-11.58216 5.9161,-19.80266 -7.4164,1.23901 -13.251092,4.03576 -18.612789,7.29835 z"
       id="path5356-3-6"
       inkscape:connector-curvature="0"
       sodipodi:nodetypes="cccc" />
    <path
       style="fill:#98eaa2;fill-opacity:1;fill-rule:evenodd;stroke:none;stroke-width:1px;stroke-linecap:butt;stroke-linejoin:miter;stroke-opacity:1"
       d="m 113.91347,825.27416 c 2.81908,-4.40225 14.37125,-7.6674 23.1016,-8.40058 -6.97566,7.68803 -7.50581,12.29199 -10.57851,18.12348 z"
       id="path5375-1"
       inkscape:connector-curvature="0"
       sodipodi:nodetypes="cccc" />
    <path
       style="fill:#98eaa2;fill-opacity:1;fill-rule:evenodd;stroke:none;stroke-width:1px;stroke-linecap:butt;stroke-linejoin:miter;stroke-opacity:1"
       d="m 101.38628,819.82735 c 5.31321,-3.71079 10.57843,-7.46176 18.68487,-8.83296 -0.10714,7.51842 -1.99261,13.70796 -4.40986,19.50012 z"
       id="path5356-5"
       inkscape:connector-curvature="0"
       sodipodi:nodetypes="cccc" />
  </g>
</svg>
