<?xml version="1.0" encoding="UTF-8" standalone="no"?>
<svg
   xmlns:dc="http://purl.org/dc/elements/1.1/"
   xmlns:cc="http://creativecommons.org/ns#"
   xmlns:rdf="http://www.w3.org/1999/02/22-rdf-syntax-ns#"
   xmlns:svg="http://www.w3.org/2000/svg"
   xmlns="http://www.w3.org/2000/svg"
   xmlns:sodipodi="http://sodipodi.sourceforge.net/DTD/sodipodi-0.dtd"
   xmlns:inkscape="http://www.inkscape.org/namespaces/inkscape"
   version="1.1"
   preserveAspectRatio="none"
   id="svg3460"
   viewBox="0px 0px 640px 480px"
   width="640px"
   height="480px"
   inkscape:version="0.91 r13725"
   sodipodi:docname="billboard.svg">
  <sodipodi:namedview
     pagecolor="#ffffff"
     bordercolor="#666666"
     borderopacity="1"
     objecttolerance="10"
     gridtolerance="10"
     guidetolerance="10"
     inkscape:pageopacity="0"
     inkscape:pageshadow="2"
     inkscape:window-width="2560"
     inkscape:window-height="1353"
     id="namedview16"
     showgrid="false"
     inkscape:zoom="0.58115339"
     inkscape:cx="711.83772"
     inkscape:cy="134.82332"
     inkscape:window-x="1920"
     inkscape:window-y="24"
     inkscape:window-maximized="1"
     inkscape:current-layer="svg3460" />
  <defs
     id="defs3466" />
  <metadata
     id="metadata3462">
    <rdf:RDF>
      <cc:Work
         rdf:about="">
        <dc:format>image/svg+xml</dc:format>
        <dc:type
           rdf:resource="http://purl.org/dc/dcmitype/StillImage" />
        <dc:title></dc:title>
      </cc:Work>
    </rdf:RDF>
  </metadata>
  <path
     id="path3197-6"
     d="m 224.16342,15.256347 201.78668,-0.0563 43.47887,-11.1999996 49.05309,13.4399996 93.64684,-12.3199996 14.49299,2.24 8.91867,-1.12 2.7869,85.9665016 -1.95445,3.995531 0.28244,86.99796 -74.69452,1.11999 73.30093,-1.63177 3.62326,127.07179 -4.45934,3.36 -31.21565,-5.6 30.10077,10.08 3.34455,11.20001 0,67.19998 -10.03356,0 10.03356,7.84001 1.11488,36.95997 -42.36408,-7.84 33.44531,12.32 11.14844,15.68 -5.57422,14.56 -16.72266,4.48 C 416.2454,476.73856 214.30234,480.7341 11.228338,480 l -8.9187506,-13.43998 0.9351724,-63.37605 20.1348112,-3.82392 -17.3757191,-3.36001 -3.9975823,-53.76 1.5766269,-9.4239 58.7922765,-1.91609 -52.700259,-4.54381 -5.506588,-50.26413 13.839899,-8.30393 -12.5221712,-0.98411 0.7767072,-70.16403 85.234298,-6.72 L 9.2923585,188.73211 3.7181492,83.916017 53.592387,76.800037 5.5765974,79.717147 1.5705433,1.746653 Z"
     style="fill:#7d4f2e;fill-opacity:1;fill-rule:nonzero;stroke:none;stroke-width:1px;stroke-linecap:butt;stroke-linejoin:miter;stroke-opacity:1"
     inkscape:connector-curvature="0"
     sodipodi:nodetypes="cccccccccccccccccccccccccccccccccccccccccccccc" />
  <path
     id="path3197"
     d="M 222.15715,4 423.94383,2 467.4227,4.7382812e-5 516.47579,13.440047 610.12263,1.1200474 l 14.49299,2.24 8.91867,-1.12 2.7869,87.6386976 -79.71108,19.881295 77.34196,-16.57534 0.69711,86.01535 -74.69452,1.11999 73.57963,2.05277 3.34456,123.38724 -4.45934,3.36 -31.21565,-5.6 30.10077,10.08 3.34455,11.20001 0,67.19998 -10.03356,0 10.03356,7.84001 1.11488,36.95997 -42.36408,-7.84 38.17497,9.1669 6.41878,18.8331 -5.57422,14.56 L 615.69685,478 C 413.1812,475.97533 212.70687,480.94068 11,479 L 0.30332789,462.56002 1.2384903,399.18397 21.373301,395.36005 3.9975924,392.00004 0,338.24004 3.1531787,325.2689 60.368914,326.90005 7.6686544,322.35624 2.1620564,272.09211 16.001966,263.78818 3.4797843,262.80407 4.2564915,187.51626 154.33205,185.92005 7.2860989,184.73212 1.7118796,79.916027 51.586118,72.800047 4.7110122,77.92248 0,0 Z"
     style="opacity:1;fill:#ad6736;fill-opacity:1;fill-rule:evenodd;stroke:none;stroke-width:1px;stroke-linecap:butt;stroke-linejoin:miter;stroke-opacity:1"
     inkscape:connector-curvature="0"
     sodipodi:nodetypes="ccccccccccccccccccccccccccccccccccccccccccccccc" />
  <g
     id="g3272"
     transform="matrix(1.0031348,0,0,1,-2.0062696,6.7382813e-5)">
    <g
       style="fill:#925b34;fill-opacity:1;stroke:none"
       id="g3267">
      <g
         style="fill:#925b34;fill-opacity:1;stroke:none"
         id="g3263">
        <g
           style="fill:#925b34;fill-opacity:1;stroke:none"
           id="g3260">
          <path
             id="path3258"
             d="m 36.788086,27.395068 c 42.163171,9.381567 89.295744,19.503335 126.368804,-9.015838 34.16269,5.791571 66.34051,26.557046 103.17087,15.449341 24.5585,0.97043 79.7556,-19.907012 86.16714,-6.630833 C 294.02119,58.968938 226.18457,41.210405 163.049,42.667242 120.81279,39.557901 75.759598,48.103731 36.788086,27.395068 Z"
             style="fill:#925b34;fill-opacity:1;fill-rule:evenodd;stroke:none;stroke-width:1px;stroke-linecap:butt;stroke-linejoin:miter;stroke-opacity:1" />
        </g>
      </g>
    </g>
    <path
       id="path3284"
       d="m 64.657847,117.6931 c 83.447073,-10.70479 167.445413,2.69851 246.553543,29.60393 176.50751,50.91364 305.80347,47.07818 289.22666,55.36685 C 575.6046,215.08101 333.59657,160.0787 209.19978,142.20727 161.13479,129.25569 106.80516,151.1096 64.657847,117.6931 Z"
       style="fill:#925b34;fill-opacity:1;fill-rule:evenodd;stroke:none;stroke-width:1px;stroke-linecap:butt;stroke-linejoin:miter;stroke-opacity:1" />
    <path
       id="path3292"
       d="m 20.066229,374.09491 c 4.525654,21.02169 28.937498,20.69322 45.700125,18.72133 21.385559,2.15594 42.480106,-1.67857 63.751186,-2.18407 24.48578,0.50217 48.76934,-3.87626 73.32706,-1.92473 19.38379,-0.27693 40.31758,0.72831 58.08541,-7.75778 -7.32369,-11.48709 -40.37043,-0.69867 -56.50735,-4.65568 -30.49575,-0.87924 -60.54588,3.67881 -90.77415,6.52596 -20.065878,1.39032 -40.54005,-0.82957 -60.032068,-3.14974 -11.842363,-13.29828 -8.921635,7.93529 -23.418106,-0.10523 -3.565856,-1.42731 -7.055209,-3.14884 -10.132107,-5.47006 z"
       style="fill:#925b34;fill-opacity:1;fill-rule:evenodd;stroke:none;stroke-width:1px;stroke-linecap:butt;stroke-linejoin:miter;stroke-opacity:1" />
    <path
       id="path3298"
       d="m 615.36434,367.40616 c -36.14558,-16.64609 -376.51444,-47.48365 -334.2083,-39.33829 64.91698,-2.46345 269.21956,41.38182 334.2083,39.33829 z"
       style="fill:#925b34;fill-opacity:1;fill-rule:evenodd;stroke:none;stroke-width:1px;stroke-linecap:butt;stroke-linejoin:miter;stroke-opacity:1" />
    <path
       id="path3314"
       d="m 17.836648,469.96689 c 155.419412,-43.1307 318.793122,-30.49536 477.185762,-14.49313 35.31436,20.97832 138.6084,9.94909 43.602,-0.99544 C 447.39349,434.95904 352.91475,448.66646 261.61157,430.12082 183.10338,442.9142 81.096097,417.69883 17.836648,469.96689 Z"
       style="fill:#925b34;fill-opacity:1;fill-rule:evenodd;stroke:none;stroke-width:1px;stroke-linecap:butt;stroke-linejoin:miter;stroke-opacity:1" />
  </g>
</svg>
