<?xml version="1.0" encoding="UTF-8" standalone="no"?>
<!-- Created with Inkscape (http://www.inkscape.org/) -->

<svg
   xmlns:dc="http://purl.org/dc/elements/1.1/"
   xmlns:cc="http://creativecommons.org/ns#"
   xmlns:rdf="http://www.w3.org/1999/02/22-rdf-syntax-ns#"
   xmlns:svg="http://www.w3.org/2000/svg"
   xmlns="http://www.w3.org/2000/svg"
   xmlns:sodipodi="http://sodipodi.sourceforge.net/DTD/sodipodi-0.dtd"
   xmlns:inkscape="http://www.inkscape.org/namespaces/inkscape"
   width="256"
   height="256"
   viewBox="0 0 256 256.00001"
   id="svg2"
   version="1.1"
   inkscape:version="0.91 r13725"
   sodipodi:docname="grass.svg">
  <defs
     id="defs4" />
  <sodipodi:namedview
     id="base"
     pagecolor="#ffffff"
     bordercolor="#666666"
     borderopacity="1.0"
     inkscape:pageopacity="0.0"
     inkscape:pageshadow="2"
     inkscape:zoom="1.4"
     inkscape:cx="119.20913"
     inkscape:cy="50.215883"
     inkscape:document-units="px"
     inkscape:current-layer="layer1"
     showgrid="false"
     units="px"
     inkscape:window-width="688"
     inkscape:window-height="848"
     inkscape:window-x="65"
     inkscape:window-y="24"
     inkscape:window-maximized="0" />
  <metadata
     id="metadata7">
    <rdf:RDF>
      <cc:Work
         rdf:about="">
        <dc:format>image/svg+xml</dc:format>
        <dc:type
           rdf:resource="http://purl.org/dc/dcmitype/StillImage" />
        <dc:title />
      </cc:Work>
    </rdf:RDF>
  </metadata>
  <g
     inkscape:label="Layer 1"
     inkscape:groupmode="layer"
     id="layer1"
     transform="translate(0,-796.36216)">
    <path
       style="fill:#2a5e2e;fill-opacity:1;fill-rule:evenodd;stroke:none;stroke-width:1px;stroke-linecap:butt;stroke-linejoin:miter;stroke-opacity:1"
       d="m 0,958.62545 c 0,-23.58131 31.071429,-39.04069 31.071429,-39.04069 0,0 -8.476117,31.17807 1.428571,35.74586 9.904688,4.56779 22.142857,-12.12252 22.142857,-12.12252 5.265293,0.76376 16.926263,55.96406 17.142857,10.25751 0.216594,-45.70654 4.642858,-52.53085 4.642858,-52.53085 0,0 -2.611493,45.56199 7.5,53.77419 10.111493,8.2122 22.279188,10.38443 20.714288,0.9325 -1.5649,-9.45193 6.99707,-51.1264 7.85714,-50.9767 0,0 0.0666,38.17341 8.57143,45.3817 8.50485,7.20828 7.35424,8.70731 18.21428,2.17583 10.86004,-6.53148 13.57143,-51.59836 13.57143,-51.59836 0.0262,0.002 8.15727,44.13167 2.85715,49.73336 -5.30012,5.60168 14.38744,-1.13722 19.28571,-5.28417 4.89827,-4.14695 6.78571,-17.09585 6.78571,-17.09585 0,0 28.7027,57.07737 25,37.92169 -3.7027,-19.15568 2.74542,-47.33125 2.85715,-47.24669 0,0 2.75748,45.16545 14.64285,49.11169 11.88537,3.94624 10.84347,-3.33213 15,-8.70333 4.15653,-5.37121 5.35715,-22.69085 5.35715,-22.69085 2.29371,-0.33271 4.83294,23.443 7.14285,25.48835 2.30991,2.04535 4.21429,-3.23267 4.21429,-3.23267 l 0,93.99605 -256,0 z"
       id="path4159"
       inkscape:connector-curvature="0"
       sodipodi:nodetypes="sczczczzczzczzczczzczcccs" />
    <path
       style="fill:#73b06b;fill-opacity:0.50196081;fill-rule:evenodd;stroke:none;stroke-width:1px;stroke-linecap:butt;stroke-linejoin:miter;stroke-opacity:1"
       d="m 0,882.03607 c 0,0 31.144367,-3.52978 39.285714,-8.45467 C 47.427061,868.65651 50,859.90473 50,859.90473 c 1.606316,0 1.188287,12.24345 2.142857,18.02834 0.95457,5.78489 10.905014,9.39517 21.428572,12.43334 10.523558,3.03818 30.362481,6.98611 40.714281,1.86501 10.3518,-5.12111 14.28572,-23.62335 14.28572,-23.62335 0.14882,-0.0144 4.32236,13.3319 1.42857,18.65001 -2.89379,5.3181 8.0744,2.31066 20.71429,3.10833 12.63989,0.79768 51.2417,11.03437 55,-1.24333 3.7583,-12.2777 6.25821,-24.11496 7.85714,-23.00168 0,0 1.79905,8.85911 8.21429,13.9875 6.41524,5.1284 19.12017,3.52973 25.35713,-0.31083 6.23696,-3.84055 6.92858,-9.63584 6.92858,-9.63584 0,0 -1.80144,-18.14371 3.85714,11.87384 L 256,1052.6215 l -256,0 z"
       id="path4155"
       inkscape:connector-curvature="0"
       sodipodi:nodetypes="czczzzczzzczzccccc" />
    <path
       style="fill:#12650b;fill-opacity:1;fill-rule:evenodd;stroke:none;stroke-width:1px;stroke-linecap:butt;stroke-linejoin:miter;stroke-opacity:1"
       d="m 2,942.95945 c 4.375318,-47.54888 12.859097,-147.658 18.182746,-142.67738 0,0 0.828896,180.43618 7.576144,225.94663 6.747249,45.5105 10.508031,-6.9439 11.79007,-7.5224 1.28204,-0.5784 0.413864,-122.59471 6.897752,-122.59471 6.541756,95.15343 15.152288,133.63381 15.152288,133.63381 2.076416,0.4319 -3.027903,-140.49045 4.04061,-138.02966 2.157729,53.35272 6.230281,91.20904 16.162441,135.39216 0.167122,-165.97333 15.877583,-202.13281 23.233519,-211.00077 -11.63327,79.87741 -2.08804,223.08807 5.46918,224.01917 7.55722,0.9311 13.87466,-2.6848 21.38652,-4.1383 7.51184,-1.4536 -13.72372,-178.55988 -13.72372,-178.55988 14.39813,64.59882 27.53711,173.70178 34.85025,175.61418 7.31315,1.9126 3.00965,4.4264 12.37437,1.0989 4.01879,-1.4279 0.25254,-95.82946 0.25254,-95.82946 20.67495,32.2946 16.83588,74.43636 25.25382,111.65456 2.69217,-43.3728 -3.62993,-89.15957 8.08122,-130.11712 3.36717,39.85405 6.73435,84.39842 10.10152,126.60042 10.77456,-70.92013 15.2246,-148.56786 32.32488,-212.75907 0.41685,72.7199 -6.06004,141.8399 -9.09137,212.75907 10.23354,-33.8796 9.44746,-72.99883 26.31522,-101.1045 l -0.63,109.0171 -256,0 z"
       id="path3336-4"
       inkscape:connector-curvature="0"
       sodipodi:nodetypes="cczzcsccczzczscccccccccc" />
    <path
       style="fill:#5bac4f;fill-opacity:1;fill-rule:evenodd;stroke:none;stroke-width:1px;stroke-linecap:butt;stroke-linejoin:miter;stroke-opacity:1"
       d="m 0,941.21877 c 4.3753173,-47.54887 12.859097,-147.658 18.182746,-142.67738 0,0 1.839048,186.15085 8.586297,231.66131 6.747249,45.5104 9.497876,-12.6586 10.779916,-13.2371 1.28204,-0.5785 0.413864,-122.59468 6.897753,-122.59468 6.541756,95.15341 15.152288,133.63388 15.152288,133.63388 2.076416,0.4318 -3.027903,-140.49052 4.04061,-138.02973 2.157729,53.35271 6.230281,91.20902 16.162441,135.39213 0.167122,-165.9733 15.877585,-202.13279 23.233509,-211.00074 -11.63326,79.8774 -2.08804,223.08814 5.46918,224.01924 7.55722,0.931 13.87466,-2.6848 21.38652,-4.1384 7.51185,-1.4535 -13.72372,-178.55986 -13.72372,-178.55986 14.39813,64.59882 27.53712,173.70176 34.85026,175.61426 7.31315,1.9125 3.00965,4.4263 12.37437,1.0988 4.01879,-1.4278 0.25254,-95.82943 0.25254,-95.82943 20.67495,32.29464 16.83588,74.43643 25.25382,111.65463 2.69217,-43.3729 -3.62993,-89.15963 8.08122,-130.1172 3.36717,39.85402 6.73435,84.3985 10.10152,126.6005 10.77456,-70.92016 15.2246,-148.56794 32.32488,-212.75915 0.41685,72.7199 -6.06004,141.83988 -9.09137,212.75915 10.23354,-33.8797 9.44746,-72.99888 26.31522,-101.10457 l -0.63,109.01707 -256,0 z"
       id="path3336"
       inkscape:connector-curvature="0"
       sodipodi:nodetypes="cczzcsccczzczscccccccccc" />
  </g>
</svg>
