<?xml version="1.0" encoding="UTF-8" standalone="no"?>
<!-- Created with Inkscape (http://www.inkscape.org/) -->

<svg
   xmlns:dc="http://purl.org/dc/elements/1.1/"
   xmlns:cc="http://creativecommons.org/ns#"
   xmlns:rdf="http://www.w3.org/1999/02/22-rdf-syntax-ns#"
   xmlns:svg="http://www.w3.org/2000/svg"
   xmlns="http://www.w3.org/2000/svg"
   xmlns:sodipodi="http://sodipodi.sourceforge.net/DTD/sodipodi-0.dtd"
   xmlns:inkscape="http://www.inkscape.org/namespaces/inkscape"
   width="640"
   height="880"
   viewBox="0 0 639.99999 880"
   id="svg2"
   version="1.1"
   inkscape:version="0.91 r13725"
   sodipodi:docname="jungle.svg">
  <defs
     id="defs4" />
  <sodipodi:namedview
     id="base"
     pagecolor="#ffffff"
     bordercolor="#666666"
     borderopacity="1.0"
     inkscape:pageopacity="0.0"
     inkscape:pageshadow="2"
     inkscape:zoom="0.80351563"
     inkscape:cx="250.2507"
     inkscape:cy="711.09808"
     inkscape:document-units="px"
     inkscape:current-layer="layer1"
     showgrid="false"
     units="px"
     inkscape:window-width="1600"
     inkscape:window-height="813"
     inkscape:window-x="0"
     inkscape:window-y="24"
     inkscape:window-maximized="1" />
  <metadata
     id="metadata7">
    <rdf:RDF>
      <cc:Work
         rdf:about="">
        <dc:format>image/svg+xml</dc:format>
        <dc:type
           rdf:resource="http://purl.org/dc/dcmitype/StillImage" />
        <dc:title></dc:title>
      </cc:Work>
    </rdf:RDF>
  </metadata>
  <g
     inkscape:label="Layer 1"
     inkscape:groupmode="layer"
     id="layer1"
     transform="translate(0,-172.36)">
    <path
       style="fill:#abf5e4;fill-opacity:1;fill-rule:evenodd;stroke:none;stroke-width:1px;stroke-linecap:butt;stroke-linejoin:miter;stroke-opacity:1"
       d="m 274.85742,233.45312 -18.57226,47.9043 -12.12696,-38.82226 -25.01562,96.30664 -40,49.5039 L 122,535.25 122,960 l 518,0 0,-513.85352 -9.42773,31.61914 -20.71485,-99.80078 -28.57226,74.25196 -7.14258,-46.3086 -30.2793,15.69727 -22.57812,90.49023 -35.71289,-15.96679 -74.28711,-129.3418 -67.85743,-49.50195 -7.67968,-54.48828 -15.17578,-24.55274 -16.42969,112.57422 -10,-115.76953 -9.28516,31.9375 -10,-33.53321 z"
       id="path5350"
       transform="translate(0,92.36)"
       inkscape:connector-curvature="0" />
    <path
       style="fill:#c5f8e9;fill-opacity:1;fill-rule:evenodd;stroke:none;stroke-width:1px;stroke-linecap:butt;stroke-linejoin:miter;stroke-opacity:1"
       d="m 604.85742,274.17188 -33.57226,37.52539 -27.42188,109.9082 30.2793,-15.69727 7.14258,46.3086 28.57226,-74.25196 20.71485,99.80078 L 640,446.14648 640,317.02539 604.85742,274.17188 Z"
       transform="translate(0,92.36)"
       id="path5345"
       inkscape:connector-curvature="0" />
    <path
       inkscape:connector-curvature="0"
       style="fill:#c5f8e9;fill-opacity:1;fill-rule:evenodd;stroke:none;stroke-width:1px;stroke-linecap:butt;stroke-linejoin:miter;stroke-opacity:1"
       d="m 244.1582,334.89551 12.12696,38.82264 18.57226,-47.90447 10,33.53291 9.28516,-31.93703 10,115.76931 16.42969,-112.57539 15.17578,24.55369 L 327,293.0798 l -31.42773,-40.71978 -37.85743,30.33899 -13.55664,52.1965 z"
       id="path4792" />
    <path
       style="fill:#abf5e4;fill-opacity:1;fill-rule:evenodd;stroke:none;stroke-width:1px;stroke-linecap:butt;stroke-linejoin:miter;stroke-opacity:1"
       d="M 46.285156,405.11133 22.714844,500.91797 1.2851562,441.83594 0,446.14648 0,960 122,960 122,535.25 86.285156,513.69336 74.839844,428.56641 46.285156,405.11133 Z"
       transform="translate(0,92.36)"
       id="path5350-3-9"
       inkscape:connector-curvature="0" />
    <path
       style="fill:#c5f8e9;fill-opacity:1;fill-rule:evenodd;stroke:none;stroke-width:1px;stroke-linecap:butt;stroke-linejoin:miter;stroke-opacity:1"
       d="m 0,317.02539 0,129.12109 1.2851562,-4.31054 21.4296878,59.08203 23.570312,-95.80664 28.554688,23.45508 -7.125,-52.99805 L 38.427734,328.46289 4.1425781,322.07617 0,317.02539 Z"
       transform="translate(0,92.36)"
       id="path5345-5-1"
       inkscape:connector-curvature="0" />
    <path
       style="fill:#29c250;fill-opacity:1;fill-rule:evenodd;stroke:none;stroke-width:1px;stroke-linecap:butt;stroke-linejoin:miter;stroke-opacity:1"
       d="M 115.28711,347.63851 C 110.48702,353.64532 105.8618,359.68206 102,365.85058 l 12.44727,4.71423 -16.343745,2.10776 c -4.25527,8.28268 -6.805815,16.85953 -6.3086,25.96131 l 12.634765,4.27591 -10.050775,7.81353 c -1.27228,-2.93576 -2.9254,-5.75226 -5.044935,-8.41157 l -3.16796,-3.19866 -10.23438,3.2084 4.29492,-8.43884 c -4.31293,-3.01222 -9.57354,-5.69212 -15.93749,-7.96936 l -5.32422,6.64471 -0.92188,-8.64533 c -2.68661,-0.76799 -5.54446,-1.47261 -8.57422,-2.11361 l -2.71875,6.2512 -1.82422,-7.13755 c -1.90194,-0.34231 -3.8595,-0.66451 -5.89062,-0.95843 -3.32057,-0.48052 -6.81747,-0.89538 -10.49609,-1.24089 -0.96258,7.62107 -1.75886,15.17714 -1.83594,22.44903 l 13.08789,-2.43698 -12.85352,10.28557 c 0.6906,9.28122 2.99032,17.92853 8.16602,25.44119 l 13.01758,-2.91035 -4.54883,12.01347 c 9.33112,7.58195 23.44259,13.27785 44.39843,16.27575 a 47.224632,32.744216 0 0 0 0.26563,0.55518 c -17.02286,2.49594 -33.87829,6.4509 -43.76562,12.73228 -0.46739,0.29688 -0.9298,0.61018 -1.39258,0.92726 l 4.13281,9.83363 -9.93945,-5.25966 c -6.31676,5.61805 -12.09847,12.83272 -17.13672,20.27893 l 4.47461,4.26811 -6.67774,-0.92921 c -2.34016,3.63903 -4.50109,7.28259 -6.45117,10.77258 l 4.32813,3.21424 -5.57422,-0.96038 L 0,536.27543 c 0,0 0.0886,-0.0289 0.0898,-0.0292 -0.0409,0.005 8.0723397,1.02551 17.00196,-1.74543 l 1.24023,-9.27649 5.54688,8.29664 c 18.83649,-3.76923 39.23073,-15.86753 51.37109,-20.56919 l -0.46875,-14.64135 9.48438,8.98624 c 13.906785,-5.01858 24.55868,-13.34207 31.72851,-21.40684 -15.50555,120.5324 -36.08487,240.72987 -26.55078,363.74866 l 28,0 c -15.48783,-117.23572 3.06385,-241.05182 14.86523,-363.26168 0.38928,0.59024 0.77389,1.19581 1.14649,1.83503 3.82672,6.56492 11.61488,15.11457 22.75195,21.94839 1.0324,6.60834 4.71428,28.9041 11.19336,53.03106 3.82771,14.25372 8.5622,28.78288 14.24024,40.38449 5.67803,11.60161 12.20416,20.51284 20.54492,22.85812 7.73412,2.17469 14.69528,1.0203 20.51562,-1.92465 5.82035,-2.94496 10.5449,-7.60246 14.29492,-12.45372 2.58803,-3.34803 4.69082,-6.78628 6.37696,-9.88623 l 12.3164,-2.75255 -4.54882,12.01347 c 3.85939,3.13592 8.54483,5.94615 14.18359,8.38039 -14.14625,1.72791 -29.13475,4.73782 -37.4043,9.99142 -0.33883,0.21523 -0.67427,0.44415 -1.00976,0.67401 l 2.99609,7.12783 -7.20508,-3.81229 c -4.57932,4.0728 -8.77136,9.30168 -12.42383,14.69979 l 3.24414,3.09542 -4.83984,-0.67402 c -1.69649,2.6381 -3.26402,5.27761 -4.67773,7.80768 l 3.13867,2.33178 -4.04102,-0.69544 -7.41992,15.2316 c 0,0 0.0634,-0.0213 0.0644,-0.0214 -0.0297,0.004 5.85267,0.74259 12.32618,-1.26622 l 0.89843,-6.72457 4.02149,6.0155 c 13.65548,-2.7325 28.44106,-11.50367 37.24219,-14.91213 l -0.33985,-10.61284 6.875,6.5142 c 1.16447,-0.42022 2.28705,-0.8834 3.38867,-1.36362 -2.61468,2.95891 -5.06179,6.20709 -7.30468,9.52194 l 3.24414,3.09541 -4.8418,-0.67402 c -1.69649,2.6381 -3.26207,5.27957 -4.67578,7.80963 l 3.13867,2.32984 -4.04101,-0.69545 -7.41993,15.23161 c 0,0 0.0635,-0.0193 0.0645,-0.0195 -0.0297,0.004 5.85073,0.74062 12.32421,-1.26817 l 0.9004,-6.72458 4.02148,6.0155 c 13.65548,-2.7325 28.44106,-11.50367 37.24219,-14.91212 l -0.3418,-10.61283 6.87695,6.51419 c 1.39353,-0.5029 2.72585,-1.06425 4.0293,-1.65193 5.24012,63.05929 7.3725,125.88522 -5.93164,182.46167 l 30,0 c 6.34287,-48.78011 4.33302,-104.3295 -1.74023,-161.36847 2.73809,3.28497 6.26077,5.73469 10.26953,7.66548 l 8.07812,-4.60123 -3.99609,6.35056 c 3.84436,1.46617 7.98759,2.61284 12.19922,3.6876 0.58022,-1.99814 1.08653,-3.91391 1.52148,-5.75251 0.26606,-1.12462 0.50298,-2.21736 0.7168,-3.28436 l -3.38086,-2.43504 3.85547,-0.12662 c 0.29022,-1.71953 0.51178,-3.36237 0.66406,-4.9285 l -4.36133,-2.27529 4.60156,-1.41233 c 0.11445,-3.64208 -0.18614,-6.81881 -0.81835,-9.61349 8.88983,3.64081 23.09507,11.87927 36.26562,14.51473 l 4.02148,-6.0155 0.9004,6.72457 c 6.4735,2.00879 12.35391,1.27022 12.32421,1.26623 0.001,2e-4 0.0645,0.0214 0.0645,0.0214 l -7.41989,-15.23159 -4.04101,0.69543 3.13867,-2.33178 c -1.41371,-2.53006 -2.97929,-5.16957 -4.67578,-7.80768 l -4.8418,0.67402 3.24414,-3.09541 c -3.65247,-5.39812 -7.8445,-10.627 -12.42382,-14.69979 l -7.20508,3.81228 2.99609,-7.12782 c -0.33549,-0.22987 -0.67093,-0.45879 -1.00976,-0.67402 -7.99968,-5.08216 -22.28927,-8.05849 -36.01954,-9.81219 0.21844,-0.0983 0.41981,-0.19601 0.60352,-0.27077 3.46265,-0.002 6.69871,-0.27924 9.71484,-0.82207 l 1.84766,-12.70891 9.98047,8.83038 c 8.17424,-4.07658 14.383,-10.53414 19.49023,-18.32311 l -6.25976,-15.20627 10.27148,8.45052 c 3.46057,-6.40104 6.42815,-13.39818 9.28321,-20.53216 -3.38689,-1.47305 -6.64611,-2.79775 -9.78516,-3.97982 -1.92009,-0.72305 -3.79056,-1.38615 -5.6211,-2.00451 l -5.06054,5.3668 0.65625,-6.78303 c -2.96241,-0.90129 -5.80558,-1.66438 -8.5293,-2.28892 l -5.00195,7.12002 -1.43555,-8.38234 c -6.6741,-1.07854 -12.57869,-1.27336 -17.81445,-0.71883 l -0.33399,9.45767 -7.40039,-7.74535 -4.32422,1.26817 c -12.97283,5.38012 -20.38943,16.81223 -25.45507,30.06385 0.98384,-12.04838 -0.70742,-23.5419 -8.29493,-33.06186 l -3.16992,-3.19865 -10.23437,3.20839 4.29687,-8.43885 c -4.31293,-3.01222 -9.57354,-5.69212 -15.9375,-7.96936 l -5.32422,6.64471 -0.92382,-8.64533 c -2.68661,-0.76799 -5.54446,-1.47261 -8.57422,-2.11361 l -2.7168,6.25121 -1.82422,-7.13756 c -1.90194,-0.34231 -3.86146,-0.66451 -5.89258,-0.95843 -3.32057,-0.48052 -6.81551,-0.89538 -10.49414,-1.24089 -0.96257,7.62107 -1.76079,15.17714 -1.83789,22.44903 l 13.08985,-2.43698 -12.85547,10.28557 c 0.58874,7.91236 2.35379,15.36122 6.0664,22.04189 -1.69647,3.26367 -3.92745,7.04944 -6.74218,10.69076 -3.51026,4.54108 -7.86182,8.76447 -12.93555,11.33166 -5.07373,2.56718 -10.82488,3.5551 -17.6211,1.64413 -6.18956,-1.7404 -12.5532,-9.56488 -18.0371,-20.76983 -5.48391,-11.20496 -10.181,-25.55348 -13.97071,-39.66567 -5.44963,-20.29348 -9.00071,-39.91805 -10.58593,-49.4389 4.68245,2.46832 9.85814,4.60673 15.51171,6.18107 l 8.78516,-9.66804 0.62891,14.63356 c 12.45907,3.78239 33.705,14.32424 52.77148,16.67703 l 4.9082,-8.68623 1.9336,9.15766 c 9.11247,2.09671 17.12508,0.47426 17.08398,0.47337 10e-4,2e-4 0.0918,0.0195 0.0918,0.0195 l -11.78125,-20.18737 -5.48828,1.37335 4.07617,-3.52982 c -2.20646,-3.33467 -4.63556,-6.80609 -7.24219,-10.26024 l -6.58789,1.42595 4.14258,-4.59149 c -5.58279,-7.04932 -11.89077,-13.80981 -18.61133,-18.94065 l -9.51562,5.98433 3.38281,-10.11219 c -0.48526,-0.28166 -0.97066,-0.56085 -1.45899,-0.82206 -6.75276,-3.61196 -16.40084,-6.01353 -27.0664,-7.58366 6.26534,-1.04267 12.84205,-2.90491 19.42187,-5.87524 l 0.50977,-13.04008 9.90625,10.81543 c 11.98614,-5.08006 35.05856,-10.60556 51.18945,-21.01333 l -1.83008,-9.80246 7.37696,5.78174 c 8.33541,-4.22891 13.43434,-10.60536 13.40234,-10.57972 0.001,-7e-4 0.084,-0.0429 0.084,-0.0429 l -22.0293,-7.93041 -3.32227,4.56812 0.85157,-5.31616 c -3.8384,-1.14315 -7.93419,-2.24941 -12.15626,-3.22787 l -4.13281,5.31421 0.21875,-6.17329 c -8.8182,-1.82833 -18.00765,-2.97165 -26.46289,-2.60062 l -3.4414,10.68297 -3.91602,-9.91934 c -0.32194,0.0552 -0.63959,0.11806 -0.95898,0.17727 3.16542,-6.25414 4.73351,-13.14596 5.30273,-20.43477 l -12.81641,-10.33232 13.07813,2.48568 c -0.0504,-7.27211 -0.81928,-14.8323 -1.75391,-22.45682 -3.67987,0.33208 -7.17769,0.73547 -10.5,1.20388 -2.03218,0.28652 -3.99135,0.59968 -5.89453,0.93505 l -1.85156,7.13171 -2.69336,-6.26094 c -3.03209,0.62994 -5.89262,1.3223 -8.58203,2.08049 l -0.95508,8.64338 -5.30078,-6.66419 c -6.37226,2.25401 -11.64087,4.91639 -15.96485,7.91287 l 4.26368,8.45247 -10.22071,-3.2454 -3.18164,3.18697 c -1.38861,1.72926 -2.57135,3.52966 -3.58984,5.38238 l -6.86719,-1.70061 8.07227,-4.97331 c -2.10985,-4.81139 -5.20263,-9.8307 -9.44727,-15.07965 l -8.01367,2.90839 3.72461,-7.86028 c -1.89286,-2.05081 -3.96469,-4.13647 -6.2168,-6.25704 l -5.58398,3.92526 2.16797,-7.0421 c -1.44513,-1.27991 -2.94862,-2.5709 -4.5293,-3.87657 -2.58418,-2.1346 -5.35215,-4.30311 -8.3125,-6.50835 z M 95.830085,414.6408 c 1.51488,3.37665 3.46948,6.82996 5.951165,10.37322 a 47.224632,32.744216 0 0 0 -3.902335,2.65127 c -0.12574,-4.49509 -0.75312,-8.86168 -2.04883,-13.02449 z m 99.158195,3.45969 5.57031,1.26621 c -1.42682,0.59924 -2.87995,1.26526 -4.35546,1.98114 l -1.21485,-3.24735 z m 126.7461,235.89793 c -0.0254,0.10946 -0.0493,0.21835 -0.0742,0.32726 -0.01,-0.0734 -0.0197,-0.14668 -0.0293,-0.22012 0.0332,-0.0359 0.0705,-0.0713 0.10352,-0.10714 z m 32.68359,6.53562 -0.3418,10.61284 c 0.0631,0.0244 0.13357,0.0548 0.19727,0.0799 l -4.62891,0.43636 3.8086,-4.69669 -1.02735,-2.32205 c -0.27835,-0.48112 -0.5757,-0.94006 -0.88281,-1.38698 l 2.875,-2.72334 z m -29.60547,19.58543 3.6875,0.0546 -3.17187,4.65967 c -0.17163,-1.57162 -0.33804,-3.14061 -0.51563,-4.71422 z"
       id="path4138"
       inkscape:connector-curvature="0" />
    <g
       transform="matrix(-0.35096987,-0.31001057,-0.24437302,0.40804554,307.69917,338.12788)"
       id="layer1-4-1-6-6"
       inkscape:label="Layer 1"
       style="fill:#2abd36;fill-opacity:1">
      <path
         style="fill:#86e48d;fill-opacity:1;fill-rule:evenodd;stroke:none;stroke-width:1px;stroke-linecap:butt;stroke-linejoin:miter;stroke-opacity:1"
         d="m -47.49847,640.87731 14.7791,60.77861 -12.508,7.65679 13.8056,-0.87928 c 1.9656,10.52789 3.7736,21.73468 5.2221,33.24197 l -14.6222,9.62615 15.8466,1.03032 c 2.4747,23.97775 3.1011,48.76162 0.041,71.19725 l -28.1854,6.37687 24.3981,13.03182 c -0.381,1.44959 -0.7679,2.89595 -1.1912,4.31231 -5.677,18.99507 -18.4175,40.91703 -34.4023,63.21336 3.5042,-4.63247 7.0582,-8.78915 10.6544,-12.21949 0.813,-0.77547 1.6601,-1.5312 2.5092,-2.28659 l 16.765,13.60822 -4.9666,-22.76157 c 14.074,-9.61049 30.9406998,-17.28629 47.8685998,-23.3441 l 5.8943002,11.27988 1.6652,-13.88434 c 8.2095,-2.71588 16.3338,-5.06834 24.05488,-7.08345 l 3.94259,10.41449 1.03969,-11.68861 45.70124,-9.1138 c 0,0 -0.0967,0.16252 -0.0966,0.16577 0.0213,-0.0821 -2.20568,16.72599 -12.15689,33.11514 l -18.4833,-2.54532 13.08288,15.61647 c -14.5973,30.65293 -41.53109,60.21921 -58.57449,81.76716 6.0577,-1.92985 12.4988,-3.64707 19.3732,-5.12144 l 11.50319,20.39467 5.68764,-23.45513 c 7.35716,-1.06075 15.13976,-1.88167 23.35176,-2.45779 l 4.79181,18.29694 7.4901,-18.95053 c 5.13249,-0.19615 10.40491,-0.31235 15.85897,-0.32444 8.91656,-0.0197 18.26922,0.20836 28.07679,0.70123 -0.34069,21.37541 -1.09198,42.50755 -3.6305,62.57315 l -33.50961,-11.8602 29.93528,33.3933 c -5.31556,25.3001 -14.6244,48.2213 -31.07219,66.8873 l -33.14829,-13.1366 7.43587,34.8903 c -9.07968,5.7067 -19.47269,10.6282 -31.33932,14.6739 6.19465,13.2168 11.76689,25.6331 17.68026,34.9098 l -276.77099,397.5 -1192.6257,-906.0914 276.7709,-397.49999 c 10.2707,3.01892 23.2954,4.73167 37.2414,6.81675 0.029,-13.03918 1.3099,-24.88357 3.7104,-35.66482 l 34.0707,-3.35592 -22.1788,-28.89789 c 11.9336,-22.09547 29.942,-38.40733 51.3471,-51.48357 l 39.63503,19.46239 -21.12443,-29.64771 c 17.49303,-8.70404 36.50813,-15.96029 55.87113,-22.88362 3.47,9.59472 6.5593,18.819 9.2878,27.68635 1.669,5.42388 3.1875,10.6992 4.5898,15.86031 l -14.9522,13.28122 18.1404,-0.87433 c 2.005,8.33843 3.6577,16.32767 4.9579,23.96595 l -19.613,12.8754 22.1183,5.14899 c 0.7749,7.28597 1.1951,14.21613 1.3035,20.83059 14.3749,-23.57528 33.006,-59.44958 56.427,-83.39878 l 18.2532,8.191 -8.012,-17.58437 c 11.8612,-14.938 26.4833,-22.32847 26.4153,-22.28238 0,-0.001 0.1243,-0.14477 0.1243,-0.14477 l 5.7776,48.22462 -10.3253,4.63393 10.7019,0.7068 c 0.5431,8.29376 0.9016,17.09546 0.9565,26.09054 l -12.1324,5.93184 12.0891,2.38297 c -0.3027,18.6887 -2.0977,37.81503 -6.5152,54.76215 l -22.2604,2.07597 17.5582,12.46862 c -0.4263,1.07666 -0.8538,2.15127 -1.3094,3.19813 -2.0166,4.63053 -4.7076,9.44284 -7.8472,14.35225 15.3827,-22.75369 31.4237,-42.16808 46.9751,-53.66117 1.1596,-0.85704 2.3578,-1.68697 3.5606,-2.51216 l 19.3847,20.23192 -2.8747,-29.97465 c 19.4909,-9.95277 42.2591,-16.96237 64.8599,-21.88932 l 5.8168,15.42837 4.2628,-17.49668 c 10.9267,-2.10514 21.6906,-3.76076 31.8845,-5.05037 l 3.4519,13.99061 3.1205,-14.78893 59.9075,-4.03591 -0.157,0.19181 c 0.04,-0.10156 -5.3921,21.04215 -20.6424,40.36262 l -23.2732,-6.34236 14.3633,22.17512 c -16.8733,25.53282 -36.4212,49.03571 -57.7496,71.18377 l -36.6481,-16.49432 22.7879,31.44769 c -15.4867,17.712 -25.5188,25.16386 -34.9846,32.63856 l -45.2302,-20.13153 29.7134,44.73619 0.3283,60.92541 c -1.8994,0.71379 -19.8213,13.99258 -21.7132,14.61374 7.4995,-0.0664 15.0445,-0.0474 22.643,0.0815 0.1491,10.25542 0.061,20.0244 -0.2508,29.33281 -0.1908,5.6938 -0.4723,11.19731 -0.8287,16.54925 l -18.3793,7.19766 17.3438,5.60463 19.7365,20.68911 -22.3089,30.33415 32.7033,-19.73507 20.3153,18.25497 28.148,-48.55373 36.3946,20.72579 -21.5365,-41.25309 c 10.8459,-19.01385 16.5683,-37.01786 51.7489,-60.82752 1.1597,-0.85697 2.3534,-1.68075 3.5563,-2.50591 l 19.3892,20.22577 -2.8769,-29.97152 c 19.4909,-9.95243 42.2622,-16.96008 64.8627,-21.88709 l 5.816,15.42291 4.2629,-17.49657 c 10.9266,-2.10528 21.6882,-3.75762 31.8822,-5.04735 l 3.455,13.99294 3.1196,-14.79441 59.9139,-4.03093 c 0,0 -0.1549,0.1888 -0.157,0.19183 0.04,-0.10156 -5.3891,21.04457 -20.6395,40.36484 l -23.2753,-6.33926 14.3601,22.17281 c -22.9376,36.10446 -60.8461,68.8446 -86.0006,93.43563 0.2902,0.8868 0.5998,1.79104 0.8824,2.67122 l -14.3389,14.00085 18.0802,-1.76247 c 2.3783,8.23057 4.3834,16.13013 6.0264,23.69596 l -19.0098,13.82666 22.3264,4.05313 c 2.8219,18.53533 3.2919,34.92766 1.7738,49.45707 l -25.1985,0.84896 20.5797,20.60371 -3.2465,11.40011 0.6818,-1.05677 c 17.3537,4.86244 31.8751,11.09326 43.9581,18.46299 l -9.5274,24.38618 26.3986,-11.23337 9.093,8.14807 c 11.8273,13.15486 19.3408,28.24964 23.7942,44.57099 5.3881,-13.99688 13.2556,-26.79765 24.4519,-37.85126 l 9.5406,-7.57063 25.712,12.85729 -8.1171,-24.93494 c 12.4816,-6.60528 27.327,-11.91995 44.9271,-15.6947 l 11.5031,20.39466 5.6898,-23.45824 c 7.3572,-1.06074 15.1406,-1.87627 23.3526,-2.45238 l 4.788,18.28924 7.4923,-18.95366 c 5.1324,-0.19612 10.4078,-0.31007 15.862,-0.32215 8.9164,-0.0198 18.2691,0.20836 28.0768,0.70124 -0.3407,21.37543 -1.0921,42.50758 -3.6306,62.57316 l -33.5139,-11.85394 29.9396,33.38696 c -5.3155,25.30019 -14.6265,48.22455 -31.0743,66.89048 l -33.1505,-13.13342 7.435,34.8849 c -9.3187,5.85693 -20.0125,10.8949 -32.272,14.99912 0.029,0.0477 0.061,0.0925 0.09,0.14041 3.8368,8.33192 7.5199,15.90817 11.1678,22.85868 l 10.5152,9.10888 -2.2633,-24.08217 c 6.5767,-3.60441 13.6297,-7.13225 21.1679,-10.58362 l 10.4502,15.51175 0.8907,-20.48454 c 4.7646,-2.00289 9.6903,-3.97792 14.8172,-5.92159 8.3816,-3.17761 17.2519,-6.2741 26.6381,-9.28519 2.4582,7.51166 4.7997,15.00389 7.0494,22.47718 -0.017,-2.07144 -0.01,-4.15822 0.057,-6.26568 l 23.5884,-11.40587 -27.4567,-10.32498 c 0.1873,-27.02662 -7.2698,-75.65113 -0.4513,-114.87993 l 19.4239,-4.33147 -16.2639,-9.51324 c 1.4103,-19.35166 9.246,-34.21289 9.2158,-34.1338 -2e-4,-0.003 0.016,-0.1939 0.016,-0.1939 l 31.4051,35.85969 -5.8605,10.01726 9.1244,-5.8861 c 5.0336,6.43924 10.198,13.40562 15.2217,20.71165 l -6.6149,12.16764 11.1841,-5.36002 c 10.0967,15.43162 19.2132,32.12296 24.9886,48.61844 l -17.0146,15.13672 21.2333,-0.4295 c 0.2479,1.13593 0.4934,2.27019 0.7009,3.39959 0.3341,1.81929 0.6063,3.71551 0.8343,5.66454 l 20.5093,1.25574 -25.1897,-29.22303 c 15.9871,-30.61362 35.884,-90.65751 66.5334,-130.9235 l 24.6179,7.4406 -12.9456,-21.17472 c 12.8983,-21.10724 30.4854,-33.01659 30.405,-32.94551 0,-0.003 0.1293,-0.21281 0.1293,-0.21281 z m -20.1946,274.23322 c -6.8456,9.31134 -14.1979,18.64956 -21.8195,27.84659 1.3905,0.71213 2.774,1.45711 4.1412,2.26546 5.6427,-11.12011 11.5685,-21.36147 17.6783,-30.11205 z m -790.7518,-600.76977 c -6.0834,8.77072 -13.5896,17.81121 -21.9793,26.84445 1.1572,1.10955 2.2621,2.25513 3.3389,3.41745 6.0286,-10.40733 12.2687,-20.59044 18.6404,-30.2619 z M -3.1423702,978.27761 -20.89837,972.63275 -8.5307702,996.50821 c -1.3025,1.94342 -2.6395998,3.82639 -3.9948998,5.67169 l 9.6741998,4.8369 -8.1222998,-24.93404 c 2.5047998,-1.32551 5.1329998,-2.5854 7.8313998,-3.80511 z M -935.86007,269.64997 c -0.2797,3.05725 -0.6176,6.05739 -1.0532,8.95483 l -25.2112,-0.39086 7.3877,8.12088 c 1.263,-1.91519 2.5641,-3.82091 3.932,-5.7146 l 25.5548,4.93592 z m 695.5736,665.93273 -30.1285,0.61197 36.1297,19.27395 c -2.3028,-6.18638 -4.3319,-12.84504 -6.0012,-19.88592 z m 9.6604,28.85017 c 0.9894,11.00228 1.0838,21.83884 -0.021,32.46062 5.9148,1.20138 12.1693,2.34182 18.8633,3.44191 0.7033,-0.90485 1.3921,-1.72519 2.0916,-2.60873 -0.6735,-0.83355 -1.3692,-1.66718 -2.0984,-2.49889 -6.2499,-7.12885 -13.0343,-17.68539 -18.8354,-30.79491 z"
         id="path4142-9-6-7"
         inkscape:connector-curvature="0"
         sodipodi:nodetypes="ccccccccccccccccccccccccccccccccccsccccccccccccccccccccccccccccccccccccccccccccccccccccccccccccccscccccsccccccccccccccccccccccccccccccccccccccccccccccccccccscccccccccccccccsccccccccccccccccccccccccccccccccccccccccccccccccccccccccccccccc" />
    </g>
    <path
       style="fill:#3adb69;fill-opacity:1;fill-rule:nonzero;stroke:none;stroke-width:1px;stroke-linecap:butt;stroke-linejoin:miter;stroke-opacity:1"
       d="m 0,844.25512 c 1.92891,-5.33122 4.67817,-9.40686 10.08512,-11.66922 1.60848,4.65394 4.01441,10.18341 1.8668,15.86777 3.20152,-2.42334 6.00717,-5.52532 10.57851,-5.60039 1.97979,2.17793 0.92173,4.35586 1.24453,6.53379 3.9764,-4.5327 3.78968,-9.58411 13.68984,-13.37871 2.11555,9.38618 0.52103,10.36286 -0.31113,13.06758 3.75396,-5.6668 8.4867,-8.11762 13.68984,-9.02285 -1.12993,3.12443 -0.10663,6.10531 1.8668,9.02285 3.13486,-4.11612 6.40723,-5.61954 9.95624,-1.8668 3.16862,-5.59486 7.66718,-10.63938 11.51191,-14.3121 5.00595,6.92565 7.48095,14.70432 10.26738,22.40155 1.01361,-5.77054 3.05539,-11.44316 8.40059,-16.80117 2.77434,4.38997 5.442,8.78556 4.35586,13.37871 2.83785,-4.94135 6.39737,-8.63621 11.51191,-9.64511 1.59573,3.16486 1.30897,6.59866 1.55566,9.95624 1.76181,-8.69736 9.03724,-15.42556 16.49003,-22.09042 2.78912,2.39666 4.79673,4.96159 4.04473,8.40058 2.26148,-6.51708 7.44287,-12.45017 12.75644,-18.35683 2.28466,3.52617 1.17203,7.05235 0.9334,10.57852 2.99569,-2.65628 7.6957,-7.63603 16.80116,-7.15606 -0.42178,3.66368 -2.74081,7.11656 -4.97812,10.57852 5.55965,-6.97826 12.17923,-12.82592 20.84589,-16.49004 3.59001,4.66699 3.56975,9.33398 3.7336,14.00097 3.32311,-1.82475 2.3372,-2.70362 13.3787,-6.22265 1.81967,4.66699 0.22161,9.33398 0,14.00097 1.4013,-7.98574 6.40484,-11.92282 11.51464,-19.90856 6.3519,3.56706 7.17818,6.44341 10.57579,9.64118 0.91354,-3.14529 2.27605,-6.46294 4.66699,-9.02285 2.278,-0.14512 7.13658,10.67727 10.88964,16.80117 2.71468,-3.38607 4.94207,-7.74673 8.40059,-9.64511 9.73397,4.91982 9.35408,11.14465 13.3787,16.80116 -0.30916,-5.13087 -0.0695,-10.32631 3.11133,-15.86777 8.03217,5.96387 7.00526,12.75129 8.71172,19.29023 3.36277,-6.40545 4.76993,-13.13684 11.51191,-18.97909 8.064,6.88202 8.02634,15.52526 11.82304,23.33495 0.80119,-4.56328 0.63672,-9.12656 4.35586,-13.68984 6.44418,2.13437 9.49595,7.14673 12.5983,12.05692 -0.73755,-2.9039 0.64173,-6.11924 3.26947,-9.25672 7.0339,5.80781 4.35766,11.61562 6.53378,17.42343 0.88101,-8.2053 0.77426,-16.29439 4.97813,-24.89062 1.278,3.76979 5.49881,6.93157 4.97812,11.20078 1.10556,-2.96977 3.35742,-4.51156 6.22265,-5.28926 2.42641,1.64128 3.57874,3.44182 4.35586,5.28926 1.2063,-6.01783 4.15471,-11.90922 6.53379,-13.68984 2.54859,1.20709 3.76419,4.41367 4.66699,8.08945 1.54572,-16.80993 4.31438,-17.23258 6.84492,-20.84589 6.16587,2.33138 12.62495,14.04523 18.9791,22.40155 1.22513,-6.24205 3.03738,-11.89699 6.53378,-15.86777 5.49051,7.07066 5.30739,15.08692 7.46719,22.71269 1.45068,-5.18212 -1.53776,-3.99086 4.35586,-15.55663 5.81956,2.55528 7.46877,9.9225 10.88964,15.2455 2.88611,-7.17925 5.74816,-14.47401 9.64512,-16.80117 5.0651,5.91338 5.23959,12.37017 6.84492,18.66797 3.18711,-5.90936 6.12287,-12.13861 11.51191,-15.24551 2.35798,3.21504 3.86613,6.43008 4.35585,9.64512 2.18988,-10.37512 4.38622,-20.73374 8.40059,-26.44628 8.35593,7.31648 11.59104,14.98613 14.00097,22.71268 2.59002,-4.6679 3.33448,-9.951 8.71172,-13.68983 2.62682,4.29819 2.20715,8.34251 2.48906,12.4453 4.06342,-5.22196 8.58859,-8.7816 13.68984,-10.26738 0.88512,4.04473 0.18708,6.76714 0.31113,12.13418 4.43001,-6.68795 9.47357,-6.88898 9.47357,-6.88898 0.46808,0.18813 1.06188,16.87848 1.1314,16.80895 0.60013,-0.60013 0.57007,-5.36119 3.08487,-7.8976 1.77109,1.1168 5.28963,1.81381 5.91152,6.37821 -1.29282,-7.57089 0.0603,-15.14179 2.48906,-22.71268 2.43197,5.03073 6.4147,9.83992 6.22266,15.2455 0.97481,-9.64511 5.2749,-19.29023 9.02285,-28.93534 8.15383,6.67326 14.24911,13.86115 17.42343,21.77929 2.28651,-5.49181 3.34329,-12.21334 8.71171,-14.62324 14.57215,5.67025 13.80544,12.0074 19.9125,18.0457 0.83901,-4.98895 2.4901,-9.62985 6.22265,-13.37871 8.77449,10.01413 3.66908,19.29775 5.28926,28.93534 2.8889,-5.80358 4.43034,-13.08936 11.20078,-14.62324 2.99173,5.88919 1.28963,11.309 0.31113,16.80117 4.69542,-5.20398 9.53809,-9.96618 15.86777,-10.26738 0.61746,3.62988 0.5207,7.25977 -0.9334,10.88965 4.99762,-5.7361 10.05422,-10.94132 15.86777,-9.33399 2.41194,5.39297 1.62434,10.78594 1.24453,16.17891 1.37204,-6.79069 3.24394,-13.53139 8.71171,-19.9125 2.68519,5.4974 6.6227,1.61319 10.44964,1.40184 l 0,208.10708 -640,0 z"
       id="path5604"
       inkscape:connector-curvature="0"
       sodipodi:nodetypes="ccccccccccccccccccccccccccccccccccccccccccccccccccccccccccccccssccccccccccccccccccccc" />
    <path
       style="fill:#98eaa2;fill-opacity:1;fill-rule:evenodd;stroke:none;stroke-width:0.85325336px;stroke-linecap:butt;stroke-linejoin:miter;stroke-opacity:1"
       d="m 171.74609,834.20052 c -4.41828,0 -8,3.5817 -8,8 0.002,1.5704 0.46573,3.1055 1.33399,4.414 -4.37171,2.0627 -8.21931,5.089 -11.25391,8.8516 -1.51063,-1.6107 -3.61986,-2.5254 -5.82812,-2.5273 -4.41828,0 -8,3.5817 -8,8 0.002,1.0585 0.21481,2.1061 0.625,3.082 -2.0459,-0.4078 -4.12676,-0.6145 -6.21289,-0.6172 -9.97243,0.015 -19.36791,4.6778 -25.41016,12.6113 -1.49085,-1.4523 -3.48901,-2.2664 -5.57031,-2.2695 -1.96012,0 -3.850553,0.7275 -5.312503,2.0332 -2.672892,-1.8491 -5.84554,-2.8403 -9.095703,-2.8418 -8.51002,0.011 -15.522687,6.6809 -15.958984,15.1797 -2.789382,-2.1485 -6.20957,-3.317 -9.730469,-3.3242 -0.363619,6e-4 -0.727111,0.014 -1.089843,0.039 -0.337651,-4.152 -3.805,-7.35 -7.970704,-7.3516 -3.092096,0 -5.905035,1.7896 -7.224609,4.586 -2.280314,-2.369 -4.912119,-4.3723 -7.802734,-5.9395 0.551666,-1.104 0.840446,-2.3206 0.84375,-3.5547 -8.32e-4,-4.0888 -3.084732,-7.5189 -7.150391,-7.9531 -2.27089,-6.3644 -8.295325,-10.616 -15.052734,-10.6231 -8.8365546,0 -15.9999982,7.1635 -16.0000004,16 0.00437,3.1539 0.9407183,6.2361 2.6914063,8.8594 -1.6613262,1.2708 -3.1940487,2.7015 -4.5761719,4.2715 l 0,169.23598 640,0 0,-169.16568 c -1.79466,2.0288 -3.32447,4.2772 -4.55273,6.6914 -4.36985,-13.0204 -16.56084,-21.8003 -30.29493,-21.8184 -5.22475,0.01 -10.36799,1.2958 -14.98046,3.75 -2.65239,-5.5623 -8.26345,-9.107 -14.42579,-9.1133 -3.09168,0 -6.11661,0.8994 -8.70898,2.584 -5.33896,-11.0381 -16.51583,-18.0549 -28.77734,-18.0664 -16.82491,0.018 -30.76196,13.0627 -31.89258,29.8496 -2.8247,-2.2488 -6.32696,-3.4761 -9.9375,-3.4824 -5.47021,0.01 -10.55753,2.8089 -13.48828,7.4277 -4.69194,-12.4643 -16.61342,-20.7195 -29.93164,-20.7265 -10.47725,0 -20.28907,5.1361 -26.26758,13.7402 -0.62848,-0.079 -1.2611,-0.1209 -1.89453,-0.125 -3.07955,0 -6.09335,0.8908 -8.67969,2.5625 -4.56994,-12.6803 -16.59556,-21.1376 -30.07422,-21.1504 -4.9643,0 -9.85962,1.1627 -14.29883,3.3848 0.34048,-0.8981 0.51647,-1.8501 0.51953,-2.8106 0,-4.4182 -3.58172,-8 -8,-8 -4.41828,0 -8,3.5818 -8,8 -9e-5,1.2621 0.2984,2.5063 0.8711,3.6309 -0.87655,-0.1538 -1.76439,-0.2341 -2.6543,-0.2402 -8.56856,0.01 -15.60804,6.769 -15.9668,15.33 -2.42496,-0.5898 -4.91061,-0.894 -7.40625,-0.9062 -3.93804,0 -7.84198,0.7298 -11.51562,2.1484 -0.8561,-3.6025 -4.07255,-6.1467 -7.77539,-6.1504 -2.52804,0 -4.90553,1.2024 -6.41211,3.2325 -4.86754,-12.1223 -16.61472,-20.069 -29.67774,-20.0762 -7.89629,0.014 -15.50866,2.9466 -21.37304,8.2344 -5.82893,-5.1187 -13.31879,-7.9457 -21.07618,-7.9551 -1.78155,0 -3.55986,0.1517 -5.3164,0.4492 -0.60515,-8.3663 -7.56884,-14.845 -15.95703,-14.8457 -6.72754,0.01 -12.73138,4.2238 -15.02344,10.5488 -5.12148,-3.5658 -11.17385,-5.5564 -17.41211,-5.7265 0.0814,-0.4513 0.12389,-0.9087 0.12695,-1.3672 0,-4.4183 -3.58172,-8 -8,-8 z"
       id="path3336-3-3-3-1"
       inkscape:connector-curvature="0"
       sodipodi:nodetypes="cccccccccccccccccccccccccccccccccccccccccccsccccccccccccccccsc" />
    <path
       style="fill:#80e49b;fill-opacity:1;fill-rule:evenodd;stroke:none;stroke-width:0.85325336px;stroke-linecap:butt;stroke-linejoin:miter;stroke-opacity:1"
       d="m 215.88477,944.22582 c -1.94019,0.96679 -3.93518,1.70016 -5.95508,2.21875 -2.0199,0.51859 -4.06524,0.823 -6.10742,0.93164 -2.04219,0.10865 -4.08086,0.0209 -6.08789,-0.24218 -2.00704,-0.26305 -3.98203,-0.70236 -5.89649,-1.29883 -1.91446,-0.59648 -3.76875,-1.35053 -5.5332,-2.24219 -1.76446,-0.89166 -3.43908,-1.91978 -4.9961,-3.06836 -1.55701,-1.14858 -2.99496,-2.41595 -4.28711,-3.7832 -1.29214,-1.36726 -2.43835,-2.83514 -3.4082,-4.38281 a 32,32 0 0 0 27.40625,15.54882 32,32 0 0 0 14.86524,-3.68164 z"
       id="path3319"
       inkscape:connector-curvature="0" />
    <path
       style="fill:#80e49b;fill-opacity:1;fill-rule:evenodd;stroke:none;stroke-width:0.85325336px;stroke-linecap:butt;stroke-linejoin:miter;stroke-opacity:1"
       d="m 220.82617,949.41528 c -1.81284,-1.53236 -3.48644,-3.25369 -4.9414,-5.18946 a 32,32 0 0 0 4.9414,5.18946 z"
       id="path3317"
       inkscape:connector-curvature="0" />
    <path
       style="fill:#80e49b;fill-opacity:1;fill-rule:evenodd;stroke:none;stroke-width:0.85325336px;stroke-linecap:butt;stroke-linejoin:miter;stroke-opacity:1"
       d="m 226.84375,953.41918 c -1.95762,-1.00735 -3.81066,-2.21581 -5.5293,-3.61133 a 32,32 0 0 0 5.5293,3.61133 z"
       id="path3315"
       inkscape:connector-curvature="0" />
    <path
       style="fill:#80e49b;fill-opacity:1;fill-rule:evenodd;stroke:none;stroke-width:0.85325336px;stroke-linecap:butt;stroke-linejoin:miter;stroke-opacity:1"
       d="m 233.87305,956.06567 c -2.23333,-0.546 -4.38774,-1.34041 -6.44141,-2.34375 a 32,32 0 0 0 6.44141,2.34375 z"
       id="path3313"
       inkscape:connector-curvature="0" />
    <path
       style="fill:#80e49b;fill-opacity:1;fill-rule:evenodd;stroke:none;stroke-width:0.85325336px;stroke-linecap:butt;stroke-linejoin:miter;stroke-opacity:1"
       d="m 241.42578,956.99926 c -2.48312,-0.003 -4.92847,-0.30331 -7.29687,-0.86133 a 32,32 0 0 0 7.29687,0.86133 z"
       id="path3311"
       inkscape:connector-curvature="0" />
    <path
       style="fill:#80e49b;fill-opacity:1;fill-rule:evenodd;stroke:none;stroke-width:0.85325336px;stroke-linecap:butt;stroke-linejoin:miter;stroke-opacity:1"
       d="m 245.77539,956.65942 c -1.43047,0.19808 -2.87693,0.33796 -4.34961,0.33984 a 32,32 0 0 0 4.34961,-0.33984 z"
       id="path3309"
       inkscape:connector-curvature="0" />
    <path
       style="fill:#80e49b;fill-opacity:1;fill-rule:evenodd;stroke:none;stroke-width:0.85325336px;stroke-linecap:butt;stroke-linejoin:miter;stroke-opacity:1"
       d="m 250.98047,955.52074 c -1.34051,0.42158 -2.72404,0.73142 -4.125,0.97461 a 32,32 0 0 0 4.125,-0.97461 z"
       id="path3307"
       inkscape:connector-curvature="0" />
    <path
       style="fill:#80e49b;fill-opacity:1;fill-rule:evenodd;stroke:none;stroke-width:0.85325336px;stroke-linecap:butt;stroke-linejoin:miter;stroke-opacity:1"
       d="m 254.98047,953.92504 c -1.16977,0.55015 -2.36796,1.0445 -3.60352,1.45117 a 32,32 0 0 0 3.60352,-1.45117 z"
       id="path3305"
       inkscape:connector-curvature="0" />
    <path
       style="fill:#80e49b;fill-opacity:1;fill-rule:evenodd;stroke:none;stroke-width:0.85325336px;stroke-linecap:butt;stroke-linejoin:miter;stroke-opacity:1"
       d="m 259.57031,951.32348 c -1.15301,0.79656 -2.37136,1.49276 -3.62109,2.13281 a 32,32 0 0 0 3.62109,-2.13281 z"
       id="path3303"
       inkscape:connector-curvature="0" />
    <path
       style="fill:#80e49b;fill-opacity:1;fill-rule:evenodd;stroke:none;stroke-width:0.85325336px;stroke-linecap:butt;stroke-linejoin:miter;stroke-opacity:1"
       d="m 262.89844,948.63793 c -0.97083,0.88302 -1.98313,1.71842 -3.05274,2.47461 a 32,32 0 0 0 3.05274,-2.47461 z"
       id="path3301"
       inkscape:connector-curvature="0" />
    <path
       style="fill:#80e49b;fill-opacity:1;fill-rule:evenodd;stroke:none;stroke-width:0.85325336px;stroke-linecap:butt;stroke-linejoin:miter;stroke-opacity:1"
       d="m 266.52344,944.79418 c -0.87535,1.11138 -1.84035,2.1377 -2.84766,3.11719 a 32,32 0 0 0 2.84766,-3.11719 z"
       id="path3299"
       inkscape:connector-curvature="0" />
    <path
       style="fill:#80e49b;fill-opacity:1;fill-rule:evenodd;stroke:none;stroke-width:0.85325336px;stroke-linecap:butt;stroke-linejoin:miter;stroke-opacity:1"
       d="m 268.94141,941.19262 c -0.67403,1.14722 -1.401,2.25572 -2.20313,3.29883 a 32,32 0 0 0 2.20313,-3.29883 z"
       id="path3297"
       inkscape:connector-curvature="0" />
    <path
       style="fill:#80e49b;fill-opacity:1;fill-rule:evenodd;stroke:none;stroke-width:0.85325336px;stroke-linecap:butt;stroke-linejoin:miter;stroke-opacity:1"
       d="m 271.34961,936.22973 c -0.52695,1.406 -1.17443,2.73976 -1.87695,4.0332 a 32,32 0 0 0 1.87695,-4.0332 z"
       id="path3295"
       inkscape:connector-curvature="0" />
    <path
       style="fill:#80e49b;fill-opacity:1;fill-rule:evenodd;stroke:none;stroke-width:0.85325336px;stroke-linecap:butt;stroke-linejoin:miter;stroke-opacity:1"
       d="m 324.28125,945.38793 c -1.11356,1.07097 -2.26198,2.0471 -3.4375,2.92969 -1.17552,0.88259 -2.37718,1.67249 -3.60156,2.37305 -1.22439,0.70056 -2.47032,1.31107 -3.73047,1.83593 -1.26015,0.52487 -2.53555,0.96284 -3.81836,1.31836 -2.56562,0.71104 -5.16255,1.09042 -7.74024,1.16211 -2.57768,0.0717 -5.13615,-0.16474 -7.62109,-0.68164 -2.48494,-0.5169 -4.89814,-1.31438 -7.18555,-2.36914 -2.2874,-1.05476 -4.44851,-2.36632 -6.43359,-3.9082 -1.98507,-1.54188 -3.79315,-3.31472 -5.37109,-5.29297 -1.57795,-1.97825 -2.92617,-4.1615 -3.99219,-6.52539 a 32,32 0 0 0 29.42383,19.50586 32,32 0 0 0 23.50781,-10.34766 z"
       id="path3293"
       inkscape:connector-curvature="0" />
    <path
       style="fill:#80e49b;fill-opacity:1;fill-rule:evenodd;stroke:none;stroke-width:0.85325336px;stroke-linecap:butt;stroke-linejoin:miter;stroke-opacity:1"
       d="m 386.3457,945.36645 c -0.566,1.31666 -1.26734,2.53269 -2.08593,3.65039 -0.8186,1.1177 -1.75525,2.13663 -2.79297,3.0625 -1.03773,0.92587 -2.17504,1.75884 -3.39844,2.5 -1.2234,0.74116 -2.53259,1.3915 -3.9082,1.95508 -1.37562,0.56357 -2.81813,1.04048 -4.3125,1.43359 -1.49438,0.39311 -3.03947,0.70187 -4.61914,0.93164 -3.15935,0.45955 -6.45607,0.60029 -9.75586,0.44922 -3.2998,-0.15107 -6.60282,-0.59413 -9.77539,-1.29883 -3.17258,-0.7047 -6.2145,-1.6717 -8.99219,-2.87304 -1.38885,-0.60068 -2.71319,-1.26047 -3.95313,-1.97461 -1.23993,-0.71415 -2.39555,-1.48224 -3.45312,-2.30274 -1.05757,-0.8205 -2.01568,-1.69355 -2.85742,-2.61328 -0.84175,-0.91973 -1.5677,-1.8866 -2.16016,-2.89844 a 32,32 0 0 0 31.0332,24.33008 32,32 0 0 0 31.03125,-24.35156 z"
       id="path3291"
       inkscape:connector-curvature="0" />
    <path
       style="fill:#80e49b;fill-opacity:1;fill-rule:evenodd;stroke:none;stroke-width:0.85325336px;stroke-linecap:butt;stroke-linejoin:miter;stroke-opacity:1"
       d="m 502.22266,945.91332 c -1.80014,2.31771 -3.57378,4.34077 -5.32032,6.09571 -1.74653,1.75493 -3.465,3.24221 -5.16015,4.49023 -1.69515,1.24802 -3.36574,2.25578 -5.01172,3.05274 -1.64598,0.79695 -3.26816,1.38341 -4.86719,1.78515 -1.59902,0.40175 -3.17618,0.61925 -4.73047,0.68164 -1.55428,0.0624 -3.08589,-0.0308 -4.59765,-0.25195 -1.51177,-0.22111 -3.00316,-0.57078 -4.47461,-1.01953 -1.47146,-0.44876 -2.92211,-0.99665 -4.35547,-1.61719 -2.86673,-1.24109 -5.66103,-2.77016 -8.38867,-4.36328 -2.72765,-1.59312 -5.3898,-3.24973 -7.9961,-4.74805 -2.60629,-1.49831 -5.15554,-2.83825 -7.6582,-3.79492 -1.25133,-0.47834 -2.49196,-0.86195 -3.7207,-1.12109 -1.22875,-0.25915 -2.44592,-0.39481 -3.6543,-0.37891 -2.41676,0.0318 -4.80637,-0.26176 -7.1543,-0.76172 -2.34793,-0.49995 -4.65336,-1.20531 -6.90625,-1.99219 -4.50577,-1.57374 -8.79539,-3.47615 -12.76367,-4.72851 -1.98414,-0.62618 -3.88878,-1.09096 -5.69922,-1.26953 -0.90522,-0.0893 -1.78765,-0.10564 -2.64453,-0.0371 -0.85688,0.0685 -1.68888,0.22352 -2.49414,0.48047 -0.80526,0.25694 -1.58363,0.61583 -2.33398,1.09179 -0.75036,0.47597 -1.47188,1.06738 -2.16407,1.79297 -0.69218,0.72559 -1.35364,1.58402 -1.98437,2.58985 -0.63073,1.00582 -1.23088,2.1599 -1.79688,3.47656 a 32,32 0 0 0 27.46094,15.63867 32,32 0 0 0 25.26172,-12.42188 32,32 0 0 0 31.36523,25.80079 32,32 0 0 0 31.78907,-28.47071 z"
       id="path3289"
       inkscape:connector-curvature="0" />
    <path
       style="fill:#80e49b;fill-opacity:1;fill-rule:evenodd;stroke:none;stroke-width:0.85325336px;stroke-linecap:butt;stroke-linejoin:miter;stroke-opacity:1"
       d="m 506.72656,949.37231 c -1.58653,-1.01908 -3.10483,-2.15888 -4.5039,-3.45899 a 32,32 0 0 0 4.5039,3.45899 z"
       id="path3287"
       inkscape:connector-curvature="0" />
    <path
       style="fill:#80e49b;fill-opacity:1;fill-rule:evenodd;stroke:none;stroke-width:0.85325336px;stroke-linecap:butt;stroke-linejoin:miter;stroke-opacity:1"
       d="m 511.88086,952.04418 c -1.65416,-0.67836 -3.26353,-1.47104 -4.78711,-2.41992 a 32,32 0 0 0 4.78711,2.41992 z"
       id="path3285"
       inkscape:connector-curvature="0" />
    <path
       style="fill:#80e49b;fill-opacity:1;fill-rule:evenodd;stroke:none;stroke-width:0.85325336px;stroke-linecap:butt;stroke-linejoin:miter;stroke-opacity:1"
       d="m 517.54492,953.7727 c -1.71049,-0.35327 -3.38912,-0.82858 -5.01367,-1.45313 a 32,32 0 0 0 5.01367,1.45313 z"
       id="path3283"
       inkscape:connector-curvature="0" />
    <path
       style="fill:#80e49b;fill-opacity:1;fill-rule:evenodd;stroke:none;stroke-width:0.85325336px;stroke-linecap:butt;stroke-linejoin:miter;stroke-opacity:1"
       d="m 523.94727,954.47192 c -1.8899,-0.003 -3.7571,-0.20714 -5.59375,-0.53711 a 32,32 0 0 0 5.59375,0.53711 z"
       id="path3281"
       inkscape:connector-curvature="0" />
    <path
       style="fill:#80e49b;fill-opacity:1;fill-rule:evenodd;stroke:none;stroke-width:0.85325336px;stroke-linecap:butt;stroke-linejoin:miter;stroke-opacity:1"
       d="m 531.44141,953.53637 c -2.42982,0.58862 -4.93755,0.9331 -7.49414,0.93555 a 32,32 0 0 0 7.49414,-0.93555 z"
       id="path3279"
       inkscape:connector-curvature="0" />
    <path
       style="fill:#80e49b;fill-opacity:1;fill-rule:evenodd;stroke:none;stroke-width:0.85325336px;stroke-linecap:butt;stroke-linejoin:miter;stroke-opacity:1"
       d="m 538.81641,950.76684 c -2.13536,1.12444 -4.40192,1.98975 -6.75,2.60937 a 32,32 0 0 0 6.75,-2.60937 z"
       id="path3277"
       inkscape:connector-curvature="0" />
    <path
       style="fill:#80e49b;fill-opacity:1;fill-rule:evenodd;stroke:none;stroke-width:0.85325336px;stroke-linecap:butt;stroke-linejoin:miter;stroke-opacity:1"
       d="m 545.12695,946.39379 c -1.86065,1.64931 -3.89029,3.08619 -6.0664,4.25586 a 32,32 0 0 0 6.0664,-4.25586 z"
       id="path3275"
       inkscape:connector-curvature="0" />
    <path
       style="fill:#80e49b;fill-opacity:1;fill-rule:evenodd;stroke:none;stroke-width:0.85325336px;stroke-linecap:butt;stroke-linejoin:miter;stroke-opacity:1"
       d="m 550.48633,940.3059 c -1.42181,2.11826 -3.10091,4.00477 -4.9375,5.69336 a 32,32 0 0 0 4.9375,-5.69336 z"
       id="path3273"
       inkscape:connector-curvature="0" />
    <path
       style="fill:#80e49b;fill-opacity:1;fill-rule:evenodd;stroke:none;stroke-width:0.85325336px;stroke-linecap:butt;stroke-linejoin:miter;stroke-opacity:1"
       d="m 597.68555,956.3391 c -0.69617,-2.07238 -1.44209,-3.9083 -2.23243,-5.53125 -0.79033,-1.62294 -1.6256,-3.03237 -2.49804,-4.2539 -0.87245,-1.22153 -1.78211,-2.2549 -2.72461,-3.12305 -0.9425,-0.86815 -1.91748,-1.57197 -2.91797,-2.13476 -1.00049,-0.5628 -2.02583,-0.98554 -3.07227,-1.29102 -1.04643,-0.30548 -2.11304,-0.49366 -3.19335,-0.58984 -2.16064,-0.19238 -4.37774,-0.0148 -6.60157,0.34179 -4.44766,0.71321 -8.92511,2.1405 -13.04687,2.74414 -2.06088,0.30183 -4.03246,0.39764 -5.86719,0.0957 -0.91737,-0.15097 -1.80179,-0.40144 -2.64453,-0.77539 -0.84275,-0.37396 -1.64433,-0.87066 -2.40039,-1.51563 a 32,32 0 0 0 21.06445,7.94336 32,32 0 0 0 4.52344,-0.35352 32,32 0 0 0 21.61133,8.44336 z"
       id="path3271"
       inkscape:connector-curvature="0" />
    <path
       style="fill:#80e49b;fill-opacity:1;fill-rule:evenodd;stroke:none;stroke-width:0.85325336px;stroke-linecap:butt;stroke-linejoin:miter;stroke-opacity:1"
       d="m 605.04492,955.43676 c -2.40437,0.57178 -4.86987,0.89937 -7.35937,0.90234 a 32,32 0 0 0 7.35937,-0.90234 z"
       id="path3269"
       inkscape:connector-curvature="0" />
    <path
       style="fill:#80e49b;fill-opacity:1;fill-rule:evenodd;stroke:none;stroke-width:0.85325336px;stroke-linecap:butt;stroke-linejoin:miter;stroke-opacity:1"
       d="m 612.56055,952.6516 c -2.18891,1.15298 -4.50751,2.00597 -6.88477,2.62305 a 32,32 0 0 0 6.88477,-2.62305 z"
       id="path3267"
       inkscape:connector-curvature="0" />
    <path
       style="fill:#80e49b;fill-opacity:1;fill-rule:evenodd;stroke:none;stroke-width:0.85325336px;stroke-linecap:butt;stroke-linejoin:miter;stroke-opacity:1"
       d="m 614.70508,955.76489 c -0.76458,-0.9931 -1.49318,-2.02164 -2.14453,-3.11329 a 32,32 0 0 0 2.14453,3.11329 z"
       id="path3265"
       inkscape:connector-curvature="0" />
    <path
       style="fill:#80e49b;fill-opacity:1;fill-rule:evenodd;stroke:none;stroke-width:0.85325336px;stroke-linecap:butt;stroke-linejoin:miter;stroke-opacity:1"
       d="m 624.05078,963.95824 c -1.06928,-0.61717 -2.10512,-1.29351 -3.09766,-2.03124 a 32,32 0 0 0 3.09766,2.03124 z"
       id="path3263"
       inkscape:connector-curvature="0" />
    <path
       style="fill:#80e49b;fill-opacity:1;fill-rule:evenodd;stroke:none;stroke-width:0.85325336px;stroke-linecap:butt;stroke-linejoin:miter;stroke-opacity:1"
       d="m 635.80273,967.97387 c -1.24068,-0.16561 -2.45853,-0.42608 -3.66015,-0.73242 a 32,32 0 0 0 3.66015,0.73242 z"
       id="path3261"
       inkscape:connector-curvature="0" />
    <path
       style="fill:#80e49b;fill-opacity:1;fill-rule:evenodd;stroke:none;stroke-width:0.85325336px;stroke-linecap:butt;stroke-linejoin:miter;stroke-opacity:1"
       d="m 111.99219,946.00317 a 32,32 0 0 0 29.68164,20.08789 32,32 0 0 0 32,-32 c -0.11549,1.90394 -0.4325,3.67305 -0.92578,5.3125 -0.49329,1.63945 -1.16317,3.1483 -1.98633,4.53515 -0.82317,1.38686 -1.79917,2.65072 -2.9043,3.79688 -1.10512,1.14616 -2.33857,2.17638 -3.67773,3.09375 -1.33917,0.91737 -2.78331,1.72334 -4.3086,2.42383 -1.52529,0.70048 -3.13142,1.29552 -4.79492,1.79101 -1.66349,0.4955 -3.38488,0.89095 -5.13867,1.19336 -1.75379,0.30241 -3.53978,0.51159 -5.33594,0.63281 -1.79615,0.12123 -3.60197,0.15354 -5.39258,0.10547 -1.79061,-0.0481 -3.56754,-0.17736 -5.30468,-0.38281 -3.47429,-0.41089 -6.7927,-1.12473 -9.76563,-2.09375 -1.48646,-0.48451 -2.88653,-1.03248 -4.17578,-1.63867 -1.28925,-0.60619 -2.46761,-1.27036 -3.51172,-1.98633 -1.04411,-0.71596 -1.95402,-1.48303 -2.70508,-2.29687 -0.75105,-0.81385 -1.34381,-1.67441 -1.7539,-2.57422 z"
       id="path3259"
       inkscape:connector-curvature="0" />
    <path
       style="fill:#80e49b;fill-opacity:1;fill-rule:evenodd;stroke:none;stroke-width:0.85325336px;stroke-linecap:butt;stroke-linejoin:miter;stroke-opacity:1"
       d="m 105.78711,948.08324 a 32,32 0 0 0 6.20508,-2.08007 c -1.99413,0.91474 -4.07867,1.59302 -6.20508,2.08007 z"
       id="path3257"
       inkscape:connector-curvature="0" />
    <path
       style="fill:#80e49b;fill-opacity:1;fill-rule:evenodd;stroke:none;stroke-width:0.85325336px;stroke-linecap:butt;stroke-linejoin:miter;stroke-opacity:1"
       d="m 98.742188,948.91723 a 32,32 0 0 0 6.644532,-0.73047 c -2.17827,0.46925 -4.40357,0.72401 -6.644532,0.73047 z"
       id="path3255"
       inkscape:connector-curvature="0" />
    <path
       style="fill:#80e49b;fill-opacity:1;fill-rule:evenodd;stroke:none;stroke-width:0.85325336px;stroke-linecap:butt;stroke-linejoin:miter;stroke-opacity:1"
       d="m 93.193359,948.39574 a 32,32 0 0 0 5.548829,0.52149 c -1.865372,-0.006 -3.720311,-0.19304 -5.548829,-0.52149 z"
       id="path3253"
       inkscape:connector-curvature="0" />
    <path
       style="fill:#80e49b;fill-opacity:1;fill-rule:evenodd;stroke:none;stroke-width:0.85325336px;stroke-linecap:butt;stroke-linejoin:miter;stroke-opacity:1"
       d="m 87.421875,946.80785 a 32,32 0 0 0 5.160156,1.45508 c -1.752483,-0.3504 -3.484,-0.81432 -5.160156,-1.45508 z"
       id="path3251"
       inkscape:connector-curvature="0" />
    <path
       style="fill:#80e49b;fill-opacity:1;fill-rule:evenodd;stroke:none;stroke-width:0.85325336px;stroke-linecap:butt;stroke-linejoin:miter;stroke-opacity:1"
       d="m 28.248047,951.25317 a 32,32 0 0 0 28.689453,17.86328 32,32 0 0 0 30.484375,-22.3086 c -1.572387,1.80885 -3.454261,3.61713 -5.570313,5.34961 -2.116051,1.73248 -4.466661,3.38856 -6.978515,4.89258 -2.511854,1.50402 -5.183565,2.857 -7.943359,3.98047 -2.759795,1.12347 -5.606923,2.01856 -8.466797,2.60938 -1.429937,0.2954 -2.863783,0.51471 -4.291016,0.64843 -1.427233,0.13373 -2.84786,0.18174 -4.253906,0.13477 -1.406046,-0.047 -2.797687,-0.18887 -4.164063,-0.43555 -1.366376,-0.24667 -2.707401,-0.59906 -4.015625,-1.06445 -1.308223,-0.46539 -2.582864,-1.04493 -3.814453,-1.74805 -1.231588,-0.70312 -2.42017,-1.52842 -3.55664,-2.48828 -1.136471,-0.95986 -2.221271,-2.05344 -3.244141,-3.28906 -1.02287,-1.23562 -1.984213,-2.61415 -2.875,-4.14453 z"
       id="path3249"
       inkscape:connector-curvature="0" />
    <path
       style="fill:#80e49b;fill-opacity:1;fill-rule:evenodd;stroke:none;stroke-width:0.85325336px;stroke-linecap:butt;stroke-linejoin:miter;stroke-opacity:1"
       d="m 26.265625,954.44067 a 32,32 0 0 0 1.982422,-3.1875 c -0.592248,1.11623 -1.274234,2.16371 -1.982422,3.1875 z"
       id="path3247"
       inkscape:connector-curvature="0" />
    <path
       style="fill:#80e49b;fill-opacity:1;fill-rule:evenodd;stroke:none;stroke-width:0.85325336px;stroke-linecap:butt;stroke-linejoin:miter;stroke-opacity:1"
       d="m 23.492188,957.91723 a 32,32 0 0 0 2.076171,-2.5 c -0.652521,0.87135 -1.344593,1.70608 -2.076171,2.5 z"
       id="path3245"
       inkscape:connector-curvature="0" />
    <path
       style="fill:#80e49b;fill-opacity:1;fill-rule:evenodd;stroke:none;stroke-width:0.85325336px;stroke-linecap:butt;stroke-linejoin:miter;stroke-opacity:1"
       d="m 20.236328,961.00317 a 32,32 0 0 0 2.824219,-2.59571 c -0.889139,0.9262 -1.836136,1.78724 -2.824219,2.59571 z"
       id="path3243"
       inkscape:connector-curvature="0" />
    <path
       style="fill:#80e49b;fill-opacity:1;fill-rule:evenodd;stroke:none;stroke-width:0.85325336px;stroke-linecap:butt;stroke-linejoin:miter;stroke-opacity:1"
       d="m 13.099609,965.41332 a 32,32 0 0 0 2.927735,-1.50586 c -0.949112,0.5508 -1.925556,1.0547 -2.927735,1.50586 z"
       id="path3241"
       inkscape:connector-curvature="0" />
    <path
       style="fill:#80e49b;fill-opacity:1;fill-rule:evenodd;stroke:none;stroke-width:0.85325336px;stroke-linecap:butt;stroke-linejoin:miter;stroke-opacity:1"
       d="m 8.9726562,966.94262 a 32,32 0 0 0 3.6015628,-1.27734 c -1.168957,0.50079 -2.374606,0.91762 -3.6015628,1.27734 z"
       id="path3239"
       inkscape:connector-curvature="0" />
    <path
       style="fill:#80e49b;fill-opacity:1;fill-rule:evenodd;stroke:none;stroke-width:0.85325336px;stroke-linecap:butt;stroke-linejoin:miter;stroke-opacity:1"
       d="m 0,968.25512 a 32,32 0 0 0 3.921875,-0.27344 C 2.6289191,968.14215 1.323296,968.25431 0,968.25512 Z"
       id="path3237"
       inkscape:connector-curvature="0" />
    <path
       style="fill:#80e49b;fill-opacity:1;fill-rule:evenodd;stroke:none;stroke-width:0.85325336px;stroke-linecap:butt;stroke-linejoin:miter;stroke-opacity:1"
       d="m 640,968.25512 c -1.36593,-0.002 -2.71823,-0.0975 -4.05273,-0.26953 A 32,32 0 0 0 640,968.25512 Z"
       id="path3235"
       inkscape:connector-curvature="0" />
    <path
       style="fill:#80e49b;fill-opacity:1;fill-rule:evenodd;stroke:none;stroke-width:0.85325336px;stroke-linecap:butt;stroke-linejoin:miter;stroke-opacity:1"
       d="m 201.01953,883.90742 c -11.24369,0.016 -21.65386,5.9326 -27.42187,15.584 -2.8125,-5.0932 -8.16815,-8.2583 -13.98633,-8.2656 -6.9057,0.01 -13.02837,4.4418 -15.18555,11.002 -0.91493,-0.085 -1.8331,-0.1307 -2.75195,-0.1368 -1.72161,0 -3.44007,0.1472 -5.13867,0.4278 1.04088,-1.3822 1.60557,-3.0647 1.60937,-4.7949 0,-4.4183 -3.58172,-8 -8,-8 -3.55845,0 -6.68734,2.3555 -7.67773,5.7734 -6.05672,-6.7223 -14.67625,-10.5662 -23.724612,-10.5801 -13.934873,0.01 -26.264109,9.0282 -30.484376,22.3086 -3.614844,-1.3819 -7.450369,-2.0965 -11.320312,-2.1094 -6.237866,0.01 -12.338218,1.8334 -17.550781,5.2598 0.0036,-0.062 0.0069,-0.125 0.0098,-0.1875 0,-8.8366 -7.163444,-16 -16,-16 -6.970987,0 -13.138289,4.5174 -15.2460937,11.1621 C 5.4920278,904.63652 2.7526152,904.26832 0,904.25512 l 0,148.10708 640,0 0,-148.10708 c -5.18382,0.01 -10.28854,1.2716 -14.875,3.6875 -5.76639,-9.6643 -16.18554,-15.5892 -27.43945,-15.6035 -1.51512,0.013 -3.02738,0.1339 -4.52539,0.3613 -5.89217,-5.4213 -13.60263,-8.4368 -21.60938,-8.4512 -7.0991,0.01 -13.99472,2.3722 -19.60156,6.7266 -1.18805,-3.0898 -4.15643,-5.1288 -7.4668,-5.1289 -4.12224,3e-4 -7.56938,3.1329 -7.96289,7.2363 -3.97127,-1.7109 -8.24812,-2.5992 -12.57226,-2.6113 -8.26133,0 -16.20122,3.2018 -22.15821,8.9258 -2.8277,-5.0406 -8.15401,-8.1644 -13.93359,-8.1719 -8.83656,0 -16,7.1634 -16,16 0.006,1.0918 0.12385,2.1802 0.35156,3.2481 -0.5902,-0.046 -1.18158,-0.076 -1.77344,-0.09 -5.18382,0.01 -10.28854,1.2716 -14.875,3.6875 -0.74144,-3.7426 -4.02259,-6.4408 -7.83789,-6.4454 -2.89755,0 -5.56777,1.5698 -6.98047,4.0996 -5.88518,-9.1733 -16.03467,-14.7206 -26.93359,-14.7207 -2.58866,0.019 -5.16544,0.3523 -7.67383,0.9922 0.88678,-1.3187 1.3607,-2.8717 1.36133,-4.4609 0,-4.4183 -3.58172,-8 -8,-8 -4.41828,0 -8,3.5817 -8,8 0.002,0.4273 0.0376,0.8538 0.10742,1.2754 -2.49607,-1.5223 -5.36153,-2.3315 -8.28515,-2.3399 -8.67938,0.01 -15.76963,6.9345 -15.98047,15.6114 -3.81742,-1.5554 -7.89939,-2.3585 -12.02149,-2.3653 -1.39986,0.013 -2.7974,0.117 -4.18359,0.3125 0.1748,-0.9399 0.265,-1.8936 0.26953,-2.8496 0,-8.8365 -7.16344,-16 -16,-16 -6.96389,0 -13.12582,4.5108 -15.23828,11.1465 -5.56635,-4.2617 -12.3782,-6.5776 -19.38867,-6.5918 -8.9108,0.015 -17.41189,3.7444 -23.45703,10.291 -1.41994,-2.4966 -4.06926,-4.0404 -6.94141,-4.0449 -2.81727,0 -5.42496,1.4889 -6.86523,3.9102 -5.94369,-5.6941 -13.85294,-8.879 -22.08399,-8.8926 -2.83313,0 -5.65336,0.3817 -8.38672,1.1269 0.14414,-0.6007 0.2182,-1.2161 0.22071,-1.8339 0,-4.4183 -3.58172,-8 -8,-8 -3.0834,0.01 -5.8895,1.7814 -7.21289,4.5664 -5.09605,-3.2215 -10.99848,-4.9378 -17.02735,-4.9512 z m 196.58008,17.3907 c 0.0643,0.017 0.12871,0.033 0.19336,0.049 -0.0424,0.024 -0.0847,0.048 -0.12695,0.072 -0.022,-0.041 -0.0441,-0.081 -0.0664,-0.1211 z"
       id="path3336-5-6-2-9-1-2-7-0-9-3-6-0"
       inkscape:connector-curvature="0"
       sodipodi:nodetypes="cccccccccccccccccccccccccccccccccccccccsccccccccccccccccccccccccc" />
    <path
       style="fill:#69df89;fill-opacity:1;fill-rule:evenodd;stroke:none;stroke-width:1px;stroke-linecap:butt;stroke-linejoin:miter;stroke-opacity:1"
       d="m 173.61328,932.35872 c 0.0358,0.5768 0.056,1.1545 0.0606,1.7324 -1.84786,30.46314 -55.12023,26.30924 -61.68164,11.9121 -4.15763,1.90724 -8.67582,2.90094 -13.250003,2.91414 -3.869944,-0.013 -7.705467,-0.7276 -11.320317,-2.10944 -12.57909,14.47074 -44.92123,28.93154 -59.17382,4.44534 -5.5473,10.4552 -16.41244,16.9947 -28.2481,17.0019 l 0,84.10704 640,0 0,-84.10704 c -11.25391,-0.014 -21.67306,-5.9391 -27.43945,-15.6035 -4.58646,2.4159 -9.69118,3.6813 -14.875,3.6875 -11.13874,-33.15824 -35.10215,-5.7137 -47.19922,-16.03324 -5.93695,8.84514 -15.88623,14.15584 -26.53906,14.16604 -8.06104,-0.015 -15.81955,-3.0712 -21.72461,-8.55864 -28.80212,37.08344 -50.60164,-1.4429 -69.93568,-1.1885 -19.33404,0.2545 -36.88527,-20.4249 -45.94128,0.6417 -9.05601,21.06654 -52.58511,16.21084 -62.06445,0.021 -17.81695,17.13554 -44.40348,9.75294 -52.93164,-9.1582 -4.67687,12.47864 -16.59758,20.75254 -29.92383,20.76954 -10.0468,-0.012 -19.50459,-4.7422 -25.54101,-12.77344 -15.52147,7.73424 -34.5127,0.5142 -42.27149,-11.8672 z"
       id="path4207-6"
       inkscape:connector-curvature="0"
       sodipodi:nodetypes="ccccccccccccccczzcccccc" />
    <path
       inkscape:connector-curvature="0"
       style="opacity:1;fill:#e3dbdb;fill-opacity:1;fill-rule:nonzero;stroke:none;stroke-width:0.70866144;stroke-miterlimit:4;stroke-dasharray:none;stroke-opacity:1"
       d="m -643.84597,-1275.6741 640.0000044,0 0,960.00005 -640.0000044,0 z"
       id="rect3776-7" />
  </g>
</svg>
