<?xml version="1.0" encoding="UTF-8" standalone="no"?>
<!-- Created with Inkscape (http://www.inkscape.org/) -->

<svg
   xmlns:dc="http://purl.org/dc/elements/1.1/"
   xmlns:cc="http://creativecommons.org/ns#"
   xmlns:rdf="http://www.w3.org/1999/02/22-rdf-syntax-ns#"
   xmlns:svg="http://www.w3.org/2000/svg"
   xmlns="http://www.w3.org/2000/svg"
   xmlns:sodipodi="http://sodipodi.sourceforge.net/DTD/sodipodi-0.dtd"
   xmlns:inkscape="http://www.inkscape.org/namespaces/inkscape"
   width="320"
   height="334"
   viewBox="0 0 320.00002 334"
   id="svg2"
   version="1.1"
   inkscape:version="0.91 r13725"
   sodipodi:docname="monkey-thinking.svg">
  <defs
     id="defs4" />
  <sodipodi:namedview
     id="base"
     pagecolor="#ffffff"
     bordercolor="#666666"
     borderopacity="1.0"
     inkscape:pageopacity="0.0"
     inkscape:pageshadow="2"
     inkscape:zoom="2.08125"
     inkscape:cx="175.87679"
     inkscape:cy="170.93296"
     inkscape:document-units="px"
     inkscape:current-layer="layer1"
     showgrid="false"
     units="px"
     showguides="true"
     inkscape:window-width="1375"
     inkscape:window-height="876"
     inkscape:window-x="65"
     inkscape:window-y="24"
     inkscape:window-maximized="1" />
  <metadata
     id="metadata7">
    <rdf:RDF>
      <cc:Work
         rdf:about="">
        <dc:format>image/svg+xml</dc:format>
        <dc:type
           rdf:resource="http://purl.org/dc/dcmitype/StillImage" />
        <dc:title />
      </cc:Work>
    </rdf:RDF>
  </metadata>
  <g
     inkscape:label="Layer 1"
     inkscape:groupmode="layer"
     id="layer1"
     transform="translate(0,-718.36268)">
    <path
       style="fill:none;fill-opacity:1;fill-rule:evenodd;stroke:#202020;stroke-width:6.00000048;stroke-linecap:round;stroke-linejoin:round;stroke-miterlimit:4;stroke-dasharray:none;stroke-opacity:1"
       d="m 208,892.40542 c 1.4027,58.91122 -95.97712,58.4573 -96,0"
       id="path4611"
       inkscape:connector-curvature="0"
       sodipodi:nodetypes="cc" />
    <path
       style="fill:#202020;fill-opacity:1"
       d="M 160 230 A 104.00002 112.00006 0 0 0 56.371094 334 L 263.73047 334 A 104.00002 112.00006 0 0 0 160 230 z "
       transform="translate(0,718.36266)"
       id="path4138-7-4-7-9" />
    <path
       style="fill:#ebdc4f;fill-opacity:1"
       d="M 160 269.19336 A 74.285704 80.000013 0 0 0 87.097656 334 L 232.87305 334 A 74.285704 80.000013 0 0 0 160 269.19336 z "
       transform="translate(0,718.36266)"
       id="path4138-7-4-6-9-0" />
    <ellipse
       style="fill:#202020;fill-opacity:1"
       id="path4138-3"
       cx="48.000004"
       cy="868.36273"
       rx="48.000004"
       ry="48.000008" />
    <ellipse
       style="fill:#404040;fill-opacity:1"
       id="path4138-3-0"
       cx="48.000004"
       cy="868.36273"
       rx="40"
       ry="40.000004" />
    <ellipse
       style="fill:#202020;fill-opacity:1"
       id="path4138-3-1"
       cx="272.00003"
       cy="868.36273"
       rx="48.000008"
       ry="48.000015" />
    <ellipse
       style="fill:#404040;fill-opacity:1"
       id="path4138-3-0-4"
       cx="272.00003"
       cy="868.36273"
       rx="40.000004"
       ry="40.000008" />
    <ellipse
       style="fill:#202020;fill-opacity:1"
       id="path4138-7"
       cx="160.00002"
       cy="868.36273"
       rx="120.00001"
       ry="112.00002" />
    <ellipse
       style="fill:#ebdc4f;fill-opacity:1"
       id="path4140"
       cx="120"
       cy="828.36273"
       rx="48.000004"
       ry="48.000008" />
    <ellipse
       style="fill:#ebdc4f;fill-opacity:1"
       id="path4140-7"
       cx="200"
       cy="828.36273"
       rx="48.000008"
       ry="48.000015" />
    <ellipse
       style="fill:#ebdc4f;fill-opacity:1"
       id="path4140-70"
       cx="160.00002"
       cy="892.36273"
       rx="96.000008"
       ry="64.000008" />
    <ellipse
       style="fill:#202020;fill-opacity:1"
       id="path4138-7-0"
       cx="160.00002"
       cy="868.36273"
       rx="16.000002"
       ry="8.000001" />
    <circle
       style="fill:#ffffff;fill-opacity:1"
       id="path4246"
       cx="120"
       cy="834.36267"
       r="24.000002" />
    <path
       style="fill:#000000;fill-opacity:1"
       d="m 125.99999,830.36269 a 8.0000005,8 0 0 0 -2.39844,0.37695 2.9942887,2.9942886 0 0 1 1.10156,2.31641 2.9942887,2.9942886 0 0 1 -2.99414,2.99414 2.9942887,2.9942886 0 0 1 -2.66602,-1.62891 8.0000005,8 0 0 0 -1.04296,3.94141 8.0000005,8 0 0 0 8,8 8.0000005,8 0 0 0 8,-8 8.0000005,8 0 0 0 -8,-8 z"
       id="path4269"
       inkscape:connector-curvature="0" />
    <circle
       style="fill:#ffffff;fill-opacity:1"
       id="path4246-0"
       cx="200"
       cy="834.36267"
       r="24.000002" />
    <path
       style="fill:#000000;fill-opacity:1"
       d="m 205.99999,830.36268 a 8.000001,8.000001 0 0 0 -2.39844,0.37695 2.9942889,2.994289 0 0 1 1.10156,2.31641 2.9942889,2.994289 0 0 1 -2.99413,2.99414 2.9942889,2.994289 0 0 1 -2.66603,-1.62891 8.000001,8.000001 0 0 0 -1.04296,3.94141 8.000001,8.000001 0 0 0 8.00001,8.00001 8.000001,8.000001 0 0 0 8,-8.00001 8.000001,8.000001 0 0 0 -8,-8 z"
       id="path4269-2"
       inkscape:connector-curvature="0" />
    <path
       style="fill:#202020;fill-opacity:1;fill-rule:evenodd;stroke:none;stroke-width:1px;stroke-linecap:butt;stroke-linejoin:miter;stroke-opacity:1"
       d="m 136.79131,768.82579 c -13.67777,-17.61288 -9.5202,-34.69426 -0.24365,-45.33991 12.62352,5.69027 19.56353,21.54599 22.65927,40.72907 3.10588,-20.00537 10.93026,-39.90746 21.19738,-45.85223 12.27154,17.33335 14.40016,34.66668 8.28403,52.00001 z"
       id="path4461"
       inkscape:connector-curvature="0"
       sodipodi:nodetypes="cccccc" />
    <path
       style="fill:none;fill-opacity:1;fill-rule:evenodd;stroke:#202020;stroke-width:32.00000381;stroke-linecap:round;stroke-linejoin:round;stroke-miterlimit:4;stroke-dasharray:none;stroke-opacity:1"
       d="M 102.00001,968.36269 C 61.392658,981.7501 25.07154,1027.7475 16.000002,1068.3627"
       id="path4154"
       inkscape:connector-curvature="0"
       sodipodi:nodetypes="cc" />
    <path
       style="fill:none;fill-opacity:1;fill-rule:evenodd;stroke:#202020;stroke-width:32.00000381;stroke-linecap:round;stroke-linejoin:round;stroke-miterlimit:4;stroke-dasharray:none;stroke-opacity:1"
       d="m 221.00003,968.36267 c 40.60735,13.38741 76.92847,59.38483 86.00001,100.00003"
       id="path4154-6"
       inkscape:connector-curvature="0"
       sodipodi:nodetypes="cc" />
    <path
       style="fill:none;fill-opacity:1;fill-rule:evenodd;stroke:#202020;stroke-width:6.43895245;stroke-linecap:round;stroke-linejoin:round;stroke-miterlimit:4;stroke-dasharray:none;stroke-opacity:1"
       d="m 97.499897,809.11045 c 10.859743,-8.79815 23.734363,-9.53676 37.135783,-8.16817"
       id="path4611-2"
       inkscape:connector-curvature="0"
       sodipodi:nodetypes="cc" />
    <path
       style="fill:none;fill-opacity:1;fill-rule:evenodd;stroke:#202020;stroke-width:6.00000048;stroke-linecap:round;stroke-linejoin:round;stroke-miterlimit:4;stroke-dasharray:none;stroke-opacity:1"
       d="m 176.74978,803.55183 c 17.99473,-20.19749 30.4422,-15.13859 43.28854,-7.73489"
       id="path4611-2-3"
       inkscape:connector-curvature="0"
       sodipodi:nodetypes="cc" />
    <path
       style="fill:none;fill-opacity:1;fill-rule:evenodd;stroke:#202020;stroke-width:6.00000048;stroke-linecap:round;stroke-linejoin:round;stroke-miterlimit:4;stroke-dasharray:none;stroke-opacity:1"
       d="m 204.14901,915.9089 c 0.96296,-31.43415 -48.85092,-28.62457 -96.00001,0"
       id="path4611-4"
       inkscape:connector-curvature="0"
       sodipodi:nodetypes="cc" />
  </g>
</svg>
